<svg width="688" height="600" viewBox="0 0 688 600" fill="none" xmlns="http://www.w3.org/2000/svg">
<g clip-path="url(#clip0_172_4906)">
<path d="M466.07 574.414C466.724 574.444 467.371 574.273 467.924 573.923C468.478 573.573 468.91 573.061 469.162 572.457C469.415 571.853 469.476 571.187 469.336 570.547C469.197 569.908 468.865 569.327 468.384 568.882C468.303 568.562 468.246 568.333 468.165 568.013C468.194 567.943 468.223 567.874 468.252 567.804C468.911 566.248 470.015 564.922 471.425 563.992C472.836 563.061 474.49 562.568 476.18 562.574C477.869 562.581 479.52 563.086 480.923 564.027C482.327 564.968 483.421 566.302 484.068 567.863C486.655 574.091 489.948 580.33 490.759 586.915C491.116 589.826 490.965 592.776 490.314 595.636C496.389 582.387 499.544 567.987 499.564 553.412C499.566 549.755 499.362 546.1 498.956 542.466C498.619 539.486 498.153 536.527 497.556 533.59C494.3 517.653 487.308 502.715 477.156 490.004C472.242 487.324 468.268 483.202 465.769 478.194C464.864 476.394 464.225 474.473 463.87 472.489C464.424 472.562 464.988 472.607 465.542 472.644C465.715 472.653 465.897 472.662 466.069 472.671L466.134 472.674C466.744 472.701 467.348 472.552 467.874 472.244C468.4 471.936 468.826 471.483 469.101 470.938C469.375 470.394 469.487 469.782 469.421 469.176C469.356 468.57 469.117 467.995 468.732 467.522C468.493 467.228 468.254 466.933 468.014 466.639C467.65 466.185 467.278 465.74 466.914 465.286C466.872 465.242 466.833 465.197 466.796 465.149C466.378 464.631 465.96 464.123 465.542 463.605C466.305 462.421 467.331 461.429 468.541 460.707C472.73 458.254 478.51 459.953 481.536 463.741C484.571 467.529 485.143 472.844 484.089 477.577C483.052 481.604 481.338 485.425 479.018 488.877C479.246 489.168 479.482 489.45 479.709 489.74C483.862 495.079 487.481 500.811 490.516 506.855C489.778 500.084 490.658 493.234 493.085 486.87C495.545 480.938 500.155 475.943 504.215 470.815C509.091 464.655 519.091 467.344 519.95 475.151C519.958 475.227 519.966 475.303 519.974 475.378C519.371 475.718 518.781 476.079 518.203 476.461C517.478 476.946 516.916 477.638 516.59 478.447C516.265 479.257 516.192 480.146 516.381 480.997C516.57 481.849 517.011 482.624 517.648 483.22C518.285 483.817 519.087 484.207 519.949 484.34L520.038 484.353C519.823 486.526 519.443 488.679 518.902 490.794C517.333 496.699 514.561 502.216 510.76 506.999C506.959 511.783 502.21 515.729 496.811 518.592C496.457 518.774 496.111 518.955 495.757 519.128C498.805 527.765 500.718 536.761 501.445 545.89C501.857 551.276 501.833 556.687 501.373 562.069L501.4 561.879C502.563 555.894 505.757 550.493 510.442 546.59C517.4 540.876 527.23 538.772 534.737 534.179C535.535 533.667 536.462 533.393 537.41 533.391C538.358 533.389 539.287 533.657 540.087 534.166C540.888 534.674 541.526 535.4 541.927 536.259C542.328 537.118 542.475 538.073 542.35 539.013C542.34 539.08 542.33 539.146 542.319 539.213C541.2 539.669 540.111 540.194 539.057 540.785C538.454 541.125 537.864 541.486 537.286 541.868C536.561 542.352 535.999 543.045 535.673 543.854C535.348 544.664 535.275 545.552 535.464 546.404C535.653 547.256 536.094 548.031 536.731 548.627C537.368 549.223 538.17 549.614 539.032 549.747L539.121 549.76C539.184 549.769 539.239 549.778 539.302 549.787C537.39 554.351 534.707 558.552 531.369 562.206C527.246 566.628 522.263 570.162 516.725 572.592C511.188 575.021 505.212 576.293 499.165 576.332H499.155C497.514 583.463 495.135 590.404 492.058 597.044H466.705C466.614 596.762 466.533 596.471 466.451 596.19C468.798 596.337 471.154 596.197 473.466 595.772C471.585 593.465 469.704 591.139 467.823 588.832C467.781 588.788 467.742 588.743 467.705 588.695C466.751 587.514 465.788 586.342 464.833 585.162L464.833 585.16C464.782 581.54 465.198 577.929 466.069 574.415L466.07 574.414Z" fill="white"/>
<path d="M381.104 87.0471C381.104 104.122 389.649 121.498 406.73 121.498C423.81 121.498 447.377 109.131 442.075 82.6303C438.725 65.8866 429.112 56.1295 412.031 56.1295V117.965C418.148 117.965 424.128 116.151 429.214 112.754C434.3 109.357 438.264 104.528 440.605 98.8788C442.945 93.2293 443.558 87.0128 442.364 81.0154C441.171 75.018 438.226 69.509 433.9 65.1851C429.575 60.8612 424.064 57.9166 418.065 56.7236C412.066 55.5306 405.847 56.1429 400.196 58.483C394.545 60.8231 389.715 64.7858 386.316 69.8702C382.918 74.9546 381.104 80.9322 381.104 87.0471Z" fill="#2F2E41"/>
<path d="M452.755 331.009C451.824 329.977 451.131 328.753 450.724 327.424C450.318 326.095 450.208 324.693 450.402 323.317C450.596 321.941 451.089 320.624 451.847 319.459C452.605 318.295 453.61 317.31 454.79 316.575L447.313 283.632L463.747 289.814L468.328 320.15C469.432 322.213 469.739 324.609 469.194 326.884C468.648 329.16 467.286 331.156 465.366 332.494C463.447 333.833 461.103 334.421 458.778 334.147C456.454 333.873 454.311 332.757 452.755 331.009V331.009Z" fill="#FFB6B6"/>
<path d="M417.87 214.243L429.341 215.41C429.341 215.41 426.341 232.398 431.033 236.224C435.724 240.05 433.833 240.032 433.806 242.868C433.778 245.704 435.624 250.448 439.379 253.32C443.134 256.193 450.944 307.343 450.944 307.343L467.964 307.506C467.456 303.107 467.499 298.661 468.091 294.272C469.1 287.664 474.201 271.02 472.337 268.166C470.473 265.312 471.454 260.064 471.509 254.392C471.563 248.721 463.447 254.987 463.538 245.535C463.629 236.082 453.219 176.768 454.246 168.269C455.273 159.771 444.945 152.109 444.945 152.109L435.489 152.019L417.87 214.243Z" fill="#6C63FF"/>
<path d="M296.095 134.47C295.809 135.756 295.808 137.088 296.092 138.374C296.377 139.659 296.94 140.867 297.742 141.911C298.544 142.956 299.565 143.812 300.734 144.419C301.903 145.026 303.191 145.37 304.507 145.426L313.709 176.082L324.379 163.321L314.005 136.166C313.952 133.95 313.088 131.83 311.577 130.208C310.065 128.586 308.011 127.574 305.803 127.365C303.595 127.157 301.388 127.764 299.598 129.074C297.809 130.383 296.562 132.303 296.095 134.47V134.47Z" fill="#FFB6B6"/>
<path d="M393.247 144.455C393.247 144.455 371.001 136.117 358.94 181.781L342.929 198.358L329.478 174.06L331.257 168.296L320.861 144.736L303.037 154.962L307.425 171.137L306.684 179.133L310.943 184.107L317.915 209.81L322.276 218.208C322.276 218.208 327.777 228.961 337.378 230.732C339.938 231.211 342.557 231.285 345.139 230.952C350.196 230.292 355.737 227.963 361.431 222.821C382.557 203.746 395.052 189.031 395.052 189.031L393.247 144.455Z" fill="#6C63FF"/>
<path d="M285.998 154.168L325.6 115.96C325.816 115.752 325.943 115.469 325.957 115.169C325.97 114.87 325.868 114.576 325.671 114.35C325.474 114.123 325.198 113.981 324.9 113.952C324.601 113.923 324.303 114.009 324.066 114.193L282.076 146.897L285.998 154.168Z" fill="#2F2E41"/>
<path d="M269.688 158.403C271.674 159.1 273.736 159.561 275.831 159.774C276.897 159.879 277.966 159.917 279.026 159.929C279.398 159.942 279.776 159.944 280.145 159.949C281.026 159.962 281.907 159.975 282.797 159.985C283.546 159.999 284.304 160.011 285.051 160.017C286.15 160.034 287.357 160.011 288.146 159.239C288.479 158.849 288.722 158.391 288.856 157.896C288.991 157.402 289.014 156.884 288.924 156.379C288.749 155.324 288.429 154.298 287.974 153.33C287.024 151.045 286.065 148.762 285.115 146.476L285.263 145.197C283.519 144.944 281.743 144.999 280.018 145.358C279.313 145.538 278.651 145.858 278.073 146.3C277.495 146.743 277.013 147.297 276.655 147.93C276.505 148.215 276.385 148.515 276.299 148.825C275.927 150.187 276.195 151.699 276.035 153.124C275.998 153.421 275.943 153.715 275.87 154.004C275.666 154.861 275.276 155.663 274.726 156.351C274.176 157.04 273.482 157.599 272.691 157.988C271.748 158.403 270.708 158.547 269.688 158.403Z" fill="#CFCFDE"/>
<path d="M266.903 157.295C267.73 157.881 268.685 158.261 269.688 158.403C268.742 158.08 267.812 157.711 266.903 157.295Z" fill="white"/>
<path d="M269.688 158.403C271.674 159.1 273.736 159.561 275.831 159.774C276.897 159.879 277.966 159.917 279.026 159.929C279.398 159.942 279.776 159.944 280.145 159.949C281.026 159.962 281.907 159.975 282.796 159.985C282.753 159.538 282.686 159.095 282.596 158.655C281.765 154.554 279.353 151.067 276.655 147.93C276.505 148.215 276.385 148.515 276.299 148.825C275.927 150.187 276.194 151.699 276.034 153.124C275.998 153.421 275.943 153.715 275.87 154.004C275.666 154.861 275.276 155.663 274.726 156.351C274.176 157.04 273.482 157.599 272.691 157.988C271.748 158.403 270.708 158.547 269.688 158.403Z" fill="#6C63FF"/>
<path d="M423.086 220.918L424.659 228.416L425.997 256.068L372.24 248.792L368.113 216.772L373.818 207.4L423.086 220.918Z" fill="#FFB6B6"/>
<path d="M383.324 107.817C376.585 95.4917 381.116 80.038 393.445 73.3003C405.774 66.5626 421.233 71.0924 427.973 83.4177C434.712 95.7431 430.181 111.197 417.852 117.934C405.523 124.672 390.064 120.142 383.324 107.817Z" fill="#FFB6B6"/>
<path d="M443.978 186.458L450.974 168.287C450.977 160.68 448.402 153.296 443.669 147.34C438.935 141.384 432.322 137.208 424.909 135.492L424.813 135.469L419.782 128.693L399.343 130.737L395.596 138.391L380.786 147.207L363.941 166.925C358.637 170.733 355.485 175.615 354.574 181.439C352.638 193.801 361.296 206.17 362.326 207.588L364.98 222.529L426.336 231.319L426.805 231.378L443.978 186.458Z" fill="#6C63FF"/>
<path d="M432.274 102.285C432.044 102.249 431.813 102.2 431.583 102.164C427.614 101.46 423.646 100.768 419.689 100.053L419.325 91.0868L414.531 99.1183C403.597 102.746 393.366 100.696 383.742 96.1702C380.567 94.6637 377.487 92.9661 374.518 91.0868C372.448 78.4577 377.671 68.5049 391.084 67.2345C391.501 67.195 391.8 66.8463 392.164 66.6641C392.166 66.6641 392.167 66.6638 392.169 66.6632C392.17 66.6626 392.172 66.6618 392.173 66.6606C392.174 66.6595 392.175 66.6581 392.175 66.6567C392.176 66.6552 392.176 66.6536 392.176 66.652C392.795 66.3608 393.426 66.0818 394.057 65.827C398.998 63.8968 404.385 63.408 409.593 64.4174C414.801 65.4268 419.615 67.8929 423.476 71.5292C431.243 78.9423 434.738 91.1838 432.274 102.285Z" fill="#2F2E41"/>
<path d="M385.611 534.034L371.015 540.739L338.201 487.647L359.743 477.752L385.611 534.034Z" fill="#FFB6B6"/>
<path d="M385.923 525.173L362.217 534.396L366.76 544.278L351.785 569.501C351.046 570.747 350.724 572.196 350.866 573.638C351.009 575.079 351.609 576.437 352.578 577.514C353.548 578.591 354.836 579.329 356.255 579.622C357.675 579.915 359.15 579.747 360.467 579.142L387.936 566.522L388.178 554.572L394.52 563.498L404.877 558.74L385.923 525.173Z" fill="#2F2E41"/>
<path d="M449.417 566.975H433.353L425.712 505.035L449.42 505.036L449.417 566.975Z" fill="#FFB6B6"/>
<path d="M458.152 439.878L458.153 439.712L452.119 429.318L458.28 415.787L458.718 333.554C461.144 274.129 426.658 245.564 426.386 245.283L425.639 244.506L370.332 243.153C370.332 243.153 341.263 328.461 318.17 405.329C316.805 409.872 312.945 414.353 314.145 418.85C323.668 454.525 334.97 494.902 342.224 496.043L365.199 483.675L360.929 421.847L363.554 415.119C368.257 414.253 380.482 366.821 380.482 366.821C382.531 364.389 382.426 357.777 382.426 357.777L398.439 340.969L413.199 418.441L409.549 441.548L412.57 449.494L425.504 515.086L425.642 516.143L450.028 513.71L458.152 439.878Z" fill="#2F2E41"/>
<path d="M454.857 559.053L429.464 557.538V568.414L405.322 585.082C404.13 585.905 403.232 587.087 402.759 588.457C402.286 589.826 402.264 591.311 402.695 592.694C403.127 594.077 403.989 595.286 405.156 596.144C406.323 597.003 407.734 597.466 409.184 597.466H439.415L444.625 586.708L446.66 597.466H458.058L454.857 559.053Z" fill="#2F2E41"/>
<path d="M422.527 66.0204V66.0419C422.524 67.3731 422.693 68.6991 423.032 69.9866C423.086 70.2124 423.15 70.4488 423.226 70.6745V70.6853C423.947 72.9845 425.191 75.0855 426.861 76.8235C428.53 78.5616 430.58 79.8894 432.849 80.703C433.182 80.832 433.526 80.9395 433.87 81.0362C434.595 81.2464 435.336 81.3973 436.085 81.4876C436.758 81.583 437.437 81.6297 438.117 81.6274C438.648 81.6296 439.18 81.6045 439.708 81.5521C440.946 81.4269 442.163 81.1489 443.332 80.7245C443.515 80.6713 443.694 80.6067 443.869 80.531C443.957 80.4998 444.043 80.4639 444.127 80.4235C446.078 79.6073 447.842 78.4033 449.313 76.8847C450.784 75.366 451.931 73.5644 452.684 71.5891C453.437 69.6139 453.781 67.5062 453.694 65.3941C453.608 63.282 453.093 61.2095 452.181 59.3024L452.17 59.2917C451.406 57.6917 450.369 56.2369 449.106 54.9922C446.289 52.1868 445.047 45.1562 440.768 45.1562C440.563 45.1526 440.359 45.1598 440.155 45.1776C437.284 45.2744 431.978 51.4667 429.72 52.9285C428.043 53.9876 426.589 55.3641 425.44 56.9807C424.241 58.6437 423.386 60.5293 422.924 62.527C422.661 63.6728 422.527 64.8447 422.527 66.0204Z" fill="#2F2E41"/>
<path d="M441.575 60.5932C443.996 63.4111 447.787 64.5065 451.207 65.9729C457.242 68.6197 462.541 72.6983 466.643 77.8551C470.745 83.0118 473.526 89.0909 474.747 95.5654C475.692 100.839 475.569 106.298 477.062 111.439C478.547 116.581 482.223 121.625 487.498 122.517C491.068 123.126 494.646 121.748 498.004 120.388C499.851 119.646 501.698 118.901 503.545 118.153C501.618 113.321 499.695 108.489 497.775 103.657C500.861 108.217 504.45 112.416 508.475 116.174C515.094 113.506 521.718 110.839 528.348 108.171C512.036 108.233 514.82 92.4029 511.17 76.5202C509.165 67.7926 492.084 61.8829 488.735 53.5793C486.925 49.0755 483.863 45.1842 479.91 42.3661C475.957 39.5479 471.28 37.9207 466.431 37.6773C461.582 37.4338 456.764 38.5841 452.549 40.9921C448.333 43.4002 444.896 46.9651 442.644 51.2649C439.295 52.5988 439.198 57.8106 441.575 60.5932Z" fill="#2F2E41"/>
<path d="M372.293 247.046C368.539 248.024 365.078 249.894 362.203 252.498C359.328 255.101 357.125 258.36 355.781 261.997C355.055 264.089 354.602 266.569 355.85 268.559C356.232 269.272 356.858 269.822 357.615 270.109C358.371 270.396 359.206 270.399 359.964 270.118C361.594 269.447 362.715 267.782 363.544 266.306C364.642 264.221 365.585 262.058 366.367 259.834C367.646 256.479 370.377 250.879 366.479 248.256C363.2 246.05 358.86 246.907 355.171 246.756C351.184 246.592 346.754 245.066 345.338 240.936C343.961 236.919 347.189 233.141 350.67 231.613C352.763 230.746 355.036 230.405 357.292 230.619C359.547 230.834 361.715 231.598 363.606 232.845C367.345 235.436 370.014 239.295 371.117 243.706C371.197 244.041 371.144 244.393 370.969 244.689C370.794 244.985 370.511 245.201 370.18 245.293C369.848 245.384 369.494 245.343 369.192 245.179C368.89 245.014 368.664 244.739 368.561 244.411C367.467 240.416 365.099 236.658 361.405 234.611C357.946 232.694 353.203 232.576 349.976 235.057C348.38 236.284 347.126 238.326 347.943 240.354C348.694 242.215 350.647 243.322 352.507 243.771C356.712 244.788 361.112 243.472 365.304 244.815C369.302 246.096 371.605 249.365 371.029 253.606C370.593 255.99 369.886 258.316 368.923 260.539C368.105 262.825 367.148 265.059 366.059 267.228C364.394 270.373 361.393 273.777 357.433 272.855C352.919 271.804 351.847 266.536 352.815 262.661C355.021 253.825 362.938 246.748 371.588 244.49C371.922 244.41 372.275 244.464 372.571 244.639C372.867 244.813 373.083 245.096 373.175 245.428C373.266 245.759 373.225 246.113 373.061 246.415C372.896 246.717 372.621 246.943 372.293 247.046Z" fill="#2F2E41"/>
<path d="M332.623 488.395C334.497 486.18 337.17 484.828 339.768 483.535L361.562 472.682L362.183 476.549C363.006 474.005 367.051 473.818 368.691 475.93C370.33 478.042 369.806 481.234 368.207 483.377C366.607 485.519 364.179 486.856 361.827 488.129C356.613 490.95 351.398 493.771 346.184 496.593C343.754 497.907 341.246 499.247 338.5 499.547C335.754 499.847 332.678 498.858 331.31 496.459C329.872 493.939 330.749 490.61 332.623 488.395Z" fill="#2F2E41"/>
<path d="M417.405 508.603C420.071 507.458 423.067 507.442 425.969 507.444C434.085 507.451 442.202 507.457 450.318 507.464L449.146 511.201C451.019 509.293 454.722 510.931 455.245 513.553C455.769 516.174 453.873 518.796 451.485 519.999C449.097 521.203 446.327 521.315 443.655 521.403C437.729 521.6 431.803 521.796 425.877 521.992C423.116 522.084 420.273 522.163 417.682 521.206C415.091 520.248 412.781 517.989 412.628 515.232C412.468 512.335 414.739 509.749 417.405 508.603Z" fill="#2F2E41"/>
<path d="M280.557 337.703C316.267 337.703 355.073 330.589 393.617 316.91C441.283 299.994 484.988 274.461 520.006 243.071L518.969 240.992C484.119 272.23 440.609 297.646 393.14 314.491C350.243 329.716 307.025 336.77 268.173 334.908L268.106 337.407C272.209 337.605 276.359 337.704 280.557 337.703Z" fill="white"/>
<path d="M600.473 207.424C629.085 169.665 617.738 126.571 634.501 96.5066C698.747 -18.7183 619.637 -8.10242 530.195 14.3051L529.982 16.7908C586.908 25.5732 624.347 54.862 632.697 97.1466C639.187 130.009 627.278 168.54 599.163 205.642L600.473 207.424Z" fill="white"/>
<path d="M324.41 341.455C360.121 341.455 401.161 301.84 437.471 320.662C547.408 377.651 532.275 282.289 563.859 246.823L562.822 244.744C527.973 275.982 484.462 301.398 436.993 318.244C394.097 333.468 350.878 340.522 312.026 338.66L311.959 341.16C316.062 341.357 320.213 341.456 324.41 341.455Z" fill="white"/>
<path d="M242.487 325.724L243.085 323.354C211.147 308.879 213.891 265.764 185.316 255.918C-32.3533 180.917 182.511 172.46 230.84 132.788C274.059 97.3111 321.16 56.0645 381.02 34.8214L380.543 32.403C320.421 53.7395 266.827 88.7118 229.635 130.878C192.256 173.255 175.876 217.889 183.512 256.558C189.534 287.051 209.927 310.967 242.487 325.724Z" fill="white"/>
<path d="M535.751 342.501C574.19 279.674 625.26 223.553 688 190.099L686.446 188.715C658.629 244.884 604.842 298.687 534.995 340.214L535.751 342.501Z" fill="white"/>
<path d="M289.044 414.773C296.282 414.773 303.643 414.557 311.128 414.124L311.048 411.624C255.842 443.024 206.593 435.557 168.517 385.706L167.819 388.027C200.437 405.645 242.01 414.773 289.044 414.773Z" fill="white"/>
<path d="M277.73 390.857C273.608 390.857 270.266 386.377 270.266 380.85C270.266 375.324 273.608 370.844 277.73 370.844C281.853 370.844 285.195 375.324 285.195 380.85C285.195 386.377 281.853 390.857 277.73 390.857Z" fill="#FD6584"/>
<path d="M529.898 207.801C529.279 203.726 533.208 199.751 538.674 198.921C544.139 198.092 549.071 200.723 549.69 204.797C550.309 208.872 546.38 212.847 540.915 213.676C535.449 214.506 530.517 211.875 529.898 207.801Z" fill="white"/>
<path d="M564.261 99.2295C560.139 99.2295 556.797 94.7495 556.797 89.2233C556.797 83.697 560.139 79.217 564.261 79.217C568.384 79.217 571.726 83.697 571.726 89.2233C571.726 94.7495 568.384 99.2295 564.261 99.2295Z" fill="white"/>
<path d="M547.299 156.538C557.034 142.975 575.407 135.966 588.338 140.883C601.268 145.8 603.858 160.781 594.123 174.344C584.388 187.907 555.733 209.242 542.803 204.325C529.873 199.408 537.564 170.101 547.299 156.538ZM547.239 198.254C548.831 200.587 552.736 200.695 555.961 198.496C559.187 196.297 560.511 192.623 558.919 190.29C557.328 187.957 553.423 187.849 550.197 190.048C546.972 192.248 545.648 195.922 547.239 198.254Z" fill="#2F2E41"/>
<path d="M558.289 169.805C559.501 170.784 560.713 171.764 561.926 172.744C563.414 174.115 565.175 175.156 567.095 175.798C569.73 176.407 572.485 176.243 575.029 175.326C578.739 174.128 581.99 171.818 584.342 168.71L581.721 169.295C583.111 167.686 584.242 165.87 585.072 163.912C585.686 162.095 585.343 160.251 583.684 159.754C581.785 159.184 578.728 160.465 577.134 159.544C574.377 157.952 578.91 152.024 576.397 150.196C574.933 149.13 572.004 150.184 569.563 151.23C566.526 152.386 563.648 153.923 560.997 155.802C556.66 159.15 554.259 164.428 556.03 167.483C556.636 168.387 557.401 169.174 558.289 169.805Z" fill="#C5C2FF"/>
<path d="M559.182 179.975C561.302 180.265 563.755 178.636 565.801 177.133L566.322 176.451C566.748 175.147 566.927 173.774 566.85 172.404C566.802 171.769 566.539 171.17 566.105 170.704C565.671 170.238 565.092 169.933 564.462 169.839C563.218 169.676 561.559 170.212 560.737 169.492C559.149 168.102 562.832 164.268 561.148 162.967C560.203 162.236 558.195 163.173 557.329 164.428C556.622 165.599 556.295 166.96 556.395 168.324C556.367 170.326 556.338 172.329 556.31 174.332C556.221 175.514 556.341 176.703 556.664 177.844C556.842 178.399 557.172 178.894 557.617 179.27C558.063 179.647 558.605 179.891 559.182 179.975Z" fill="#2F2E41"/>
<path d="M558.65 186.648C561.589 185.781 566.071 182.753 569.888 180.08L571.024 179.091C572.214 177.742 573.223 176.243 574.024 174.633C574.465 173.427 573.898 172.722 571.946 173.305C570.219 173.82 567.499 175.286 566.694 174.997C565.139 174.438 572.631 168.464 570.887 168.05C569.908 167.818 566.458 169.887 564.501 171.657C563.06 172.934 561.87 174.469 560.992 176.182C559.848 178.26 558.705 180.338 557.561 182.416C556.87 183.454 556.389 184.617 556.144 185.839C556.121 186.723 556.867 187.175 558.65 186.648Z" fill="#FD6584"/>
<path d="M142.677 24.5023C141.524 9.91182 131.865 27.1284 117.27 28.281C113.798 28.5537 110.415 29.5075 107.312 31.0878C104.209 32.6681 101.449 34.844 99.1874 37.4912C96.9262 40.1384 95.2088 43.2051 94.1334 46.5159C93.058 49.8268 92.6456 53.3171 92.9198 56.7873C93.194 60.2575 94.1495 63.6398 95.7316 66.7408C97.3137 69.8418 99.4914 72.6008 102.14 74.8603C104.789 77.1197 107.858 78.8353 111.17 79.909C114.482 80.9827 117.974 81.3935 121.445 81.1179C136.04 79.9653 143.829 39.0929 142.677 24.5023Z" fill="#C5C2FF"/>
<path d="M51.812 164.595C51.5378 161.125 50.5828 157.744 49.0015 154.644C47.4201 151.543 45.2434 148.785 42.5956 146.525C39.9478 144.266 36.8807 142.55 33.5696 141.476C30.2584 140.401 26.768 139.989 23.2975 140.263C8.70243 141.416 -1.06079 112.441 0.0921936 127.032C1.24517 141.622 12.8777 194.253 27.4728 193.1C30.9432 192.826 34.3257 191.871 37.427 190.291C40.5283 188.71 43.2878 186.534 45.5479 183.887C47.808 181.24 49.5245 178.174 50.5993 174.864C51.6741 171.553 52.0861 168.064 51.812 164.595Z" fill="#C5C2FF"/>
<path d="M18.5424 196.53C22.5325 198.453 27.1424 197.319 30.5873 194.78C34.5057 191.891 36.4373 187.297 37.0757 182.584C37.6898 177.526 37.2672 172.395 35.8336 167.505C34.4717 162.788 31.5527 157.892 26.3378 156.919C22.8621 156.27 19.1529 157.753 18.1894 161.361C17.8233 162.808 17.8364 164.325 18.2274 165.766C18.6184 167.207 19.374 168.522 20.4216 169.586C23.5409 172.582 28.5475 172.354 32.1706 170.45C36.4318 168.211 38.7832 163.73 39.5592 159.122C40.4817 153.645 39.1931 148.141 37.3595 142.988C35.3666 137.387 32.885 131.954 30.6055 126.466C26.16 115.765 21.9838 104.833 20.2133 93.3246C17.5087 75.7445 21.7202 54.8805 37.1377 44.1186C45.4605 38.3091 55.8983 36.6634 65.828 37.9138C76.2996 39.2324 85.9224 43.8258 94.4437 49.9081C98.8762 53.1286 103.086 56.6452 107.043 60.4338C108.243 61.667 109.782 62.5159 111.466 62.8725C113.149 63.229 114.9 63.0772 116.497 62.4364C124.692 59.1023 122.08 45.7723 113.634 44.7791C109.795 44.3278 105.843 46.4684 103.239 49.1432C100.399 52.1788 98.5461 56.0033 97.9236 60.1127C96.4787 68.7623 99.6867 77.9055 105.259 84.5172C111.554 91.9866 121.121 96.1917 130.434 98.4066C141.037 100.928 151.942 101.057 162.78 101.297C173.872 101.542 185.094 101.963 195.799 105.144C204.416 107.731 212.545 111.725 219.858 116.963C234.591 127.425 245.616 142.298 251.341 159.434C252.687 163.579 253.683 167.83 254.319 172.141C254.569 173.829 251.926 174.03 251.676 172.35C248.889 153.557 238.711 136.275 224.404 123.904C217.267 117.703 209.096 112.804 200.265 109.426C189.627 105.392 178.328 104.369 167.039 104.04C155.509 103.703 143.874 103.886 132.516 101.579C122.475 99.5386 112.307 95.5368 104.991 88.1258C98.5402 81.5913 94.5493 72.2428 94.9774 63.0036C95.3758 54.4068 100.112 45.2145 108.886 42.6598C113.003 41.4611 117.423 42.2237 120.481 45.3658C122.181 47.1572 123.351 49.3843 123.862 51.8001C124.372 54.2159 124.204 56.7259 123.374 59.0516C122.281 61.5786 120.286 63.6085 117.778 64.7464C115.27 65.8842 112.429 66.0485 109.806 65.2074C107.881 64.5003 106.142 63.3638 104.722 61.8842C96.4366 54.1288 87.1653 47.0118 76.3773 43.1498C66.3151 39.5477 54.7402 38.8089 44.7281 42.9631C25.7735 50.8278 20.078 73.6526 22.7272 92.2448C24.4609 104.412 29.069 115.933 33.7826 127.204C36.1896 132.96 38.8646 138.678 40.7071 144.647C42.3567 149.991 43.185 155.726 41.8321 161.232C40.6513 166.038 37.8562 170.454 33.385 172.782C29.3236 174.897 24.1699 175.262 20.191 172.747C14.4382 169.111 13.1441 159.072 19.6055 155.414C23.8928 152.986 29.3828 154.179 32.9385 157.367C36.9249 160.941 38.5532 166.294 39.375 171.416C40.9279 181.095 39.7075 193.014 30.1444 198.192C26.2047 200.325 21.5074 200.901 17.3888 198.916C17.0844 198.756 16.8542 198.484 16.7466 198.158C16.6389 197.831 16.6625 197.476 16.8121 197.166C16.9618 196.856 17.2259 196.617 17.5487 196.498C17.8715 196.38 18.2278 196.391 18.5424 196.53V196.53Z" fill="#2F2E41"/>
<path d="M254.859 165.396C253.636 149.923 274.813 108.553 265.703 97.3546C264.573 95.9551 263.387 94.6014 262.147 93.2935C258.13 89.0116 253.611 85.2299 248.688 82.0305C247.855 81.4761 247.015 80.9486 246.169 80.4396C243.16 78.6452 240.029 77.0655 236.798 75.7122C236.212 75.4749 235.617 75.2384 235.022 75.0018C218.73 68.6996 200.73 68.3804 184.224 74.1009C167.718 79.8214 153.778 91.2106 144.884 106.242C135.99 121.273 132.72 138.971 135.654 156.187C138.588 173.403 147.537 189.02 160.908 200.258C161.612 200.858 162.331 201.44 163.068 202.011C170.376 207.715 178.699 211.986 187.596 214.597C187.605 214.596 187.606 214.605 187.614 214.604C200.956 218.498 215.124 218.562 228.5 214.787L228.518 214.786C228.813 214.7 229.107 214.615 229.401 214.521C262.116 204.857 257.653 200.753 254.859 165.396Z" fill="#C5C2FF"/>
<path d="M236.833 76.0461C236.835 75.9338 236.823 75.8217 236.798 75.7122C236.212 75.4749 235.617 75.2384 235.022 75.0018C234.773 75.1017 234.56 75.2751 234.411 75.4989C234.263 75.7227 234.186 75.9863 234.191 76.2548C234.186 77.594 234.033 78.9286 233.734 80.2341C231.172 91.5659 219.569 98.1711 209.209 101.001C196.533 104.474 182.913 104.522 171.088 110.799C166.229 113.238 162.037 116.823 158.875 121.245C155.583 126.1 154.203 132 154.998 137.811C156.806 151.483 167.336 161.462 171.671 174.154C173.459 179.383 173.898 184.948 171.865 190.177C170.142 194.62 166.739 198.672 161.848 199.59C161.65 199.621 161.462 199.697 161.299 199.813C161.136 199.929 161.002 200.081 160.908 200.258C161.612 200.858 162.331 201.439 163.068 202.01C163.951 201.806 164.81 201.51 165.63 201.126C170.311 198.895 173.337 194.447 174.851 189.605C176.598 183.999 175.933 178.168 173.977 172.714C169.418 159.995 158.15 149.533 157.448 135.491C156.84 123.319 166.848 114.908 177.289 110.858C190.207 105.851 204.687 106.595 217.414 100.973C227.427 96.5492 236.787 87.6844 236.833 76.0461Z" fill="#2F2E41"/>
<path d="M248.687 82.0305C247.855 81.476 247.015 80.9486 246.169 80.4395C246.07 80.5627 246 80.7055 245.961 80.8584C245.923 81.0112 245.918 81.1705 245.946 81.3255C247.287 92.6822 244.237 104.122 237.42 113.305C234.473 117.334 230.865 120.837 226.751 123.665C222.445 126.601 217.603 128.374 212.823 130.365C208.121 132.322 203.365 134.621 199.959 138.514C196.487 142.483 195.031 147.605 194.873 152.792C194.506 165.085 201.496 175.804 202.938 187.768C203.581 193.105 202.812 198.402 199.831 202.971C197.253 206.914 193.217 209.785 188.371 209.6C186.77 209.531 186.875 211.863 188.284 212.203C188.381 212.226 188.48 212.239 188.58 212.242C194.216 212.452 199.039 208.988 202.021 204.428C205.493 199.13 206.351 192.939 205.472 186.744C203.762 174.757 196.505 163.677 197.599 151.274C197.749 148.671 198.445 146.129 199.64 143.812C200.836 141.495 202.505 139.455 204.54 137.824C208.732 134.56 213.852 132.835 218.709 130.821C223.564 128.91 228.084 126.238 232.098 122.906C236.017 119.533 239.371 115.556 242.034 111.124C247.356 102.407 249.692 92.1936 248.687 82.0305Z" fill="#2F2E41"/>
<path d="M265.703 97.3545C264.573 95.9551 263.387 94.6014 262.147 93.2935C263.865 100.042 264.158 107.075 263.007 113.943C261.621 122.584 258.076 130.736 252.701 137.645C250.007 141.085 246.831 144.12 243.273 146.657C239.202 149.548 234.704 152.074 232.008 156.434C226.162 165.899 231.506 177.227 234.38 186.676C235.887 191.608 236.908 196.906 235.24 201.929C233.944 205.824 231.069 209.604 226.822 210.374C225.153 210.674 225.353 213.325 227.031 213.016C227.345 212.955 227.659 212.886 227.972 212.808C232.582 211.594 235.91 207.822 237.526 203.37C239.619 197.56 238.638 191.541 236.879 185.77C233.984 176.278 228.031 163.873 236.243 155.285C239.706 151.662 244.397 149.439 248.181 146.172C251.572 143.258 254.551 139.895 257.035 136.177C264.642 124.76 267.732 110.922 265.703 97.3545Z" fill="#2F2E41"/>
<path d="M215.056 286.513V284.811H243.592V245.114H245.29V284.811H277.994V254.155C278.566 254.604 279.13 255.067 279.687 255.542V284.811H301.288C301.528 285.374 301.759 285.941 301.977 286.513H279.687V319.869H307.363C307.337 320.441 307.298 321.004 307.25 321.571H279.687V348.182H300.336C300.083 348.754 299.817 349.317 299.538 349.875H279.687V372.245H277.994V349.875H245.29V372.245H243.592V349.875H215.056V348.182H243.592C243.593 344.687 242.905 341.227 241.567 337.998C240.23 334.769 238.269 331.835 235.797 329.364C233.325 326.892 230.39 324.932 227.16 323.595C223.93 322.258 220.468 321.57 216.973 321.571H215.056V319.869H243.592V286.513H215.056ZM245.29 348.182H277.994V321.571H245.29V348.182ZM245.29 319.869H277.994V319.202C277.994 314.909 277.147 310.658 275.504 306.691C273.86 302.725 271.451 299.122 268.414 296.086C265.377 293.051 261.772 290.643 257.805 289C253.837 287.358 249.584 286.512 245.29 286.513V319.869Z" fill="#2F2E41"/>
<path d="M295.781 598.818L539.444 599.089Cnan nan nan nan 539.444 599.089L295.781 596.714C295.643 596.714 295.506 596.741 295.378 596.793C295.25 596.846 295.133 596.923 295.035 597.021C294.937 597.119 294.859 597.235 294.806 597.363C294.753 597.491 294.726 597.628 294.726 597.766C294.726 597.904 294.753 598.041 294.806 598.169C294.859 598.297 294.937 598.413 295.035 598.511C295.133 598.608 295.25 598.686 295.378 598.739C295.506 598.791 295.643 598.818 295.781 598.818Z" fill="#CFCFDE"/>
</g>
<defs>
<clipPath id="clip0_172_4906">
<rect width="688" height="599.089" fill="white" transform="matrix(-1 0 0 1 688 0)"/>
</clipPath>
</defs>
</svg>
