<svg width="32" height="32" viewBox="0 0 32 32" fill="none" xmlns="http://www.w3.org/2000/svg">
<rect width="32" height="32" rx="1" fill="white"/>
<path fill-rule="evenodd" clip-rule="evenodd" d="M20.0152 15.7922C20.2811 15.1349 19.7973 14.4173 19.0882 14.4173H18.9046C18.3523 14.4173 17.9046 13.9696 17.9046 13.4173V12.3074C17.9046 11.7251 18.3825 11.7799 18.9713 11.7799H19.038C19.5902 11.7799 20.038 11.3322 20.038 10.7799V10.1426C20.038 9.59029 19.5902 9.14258 19.038 9.14258H17.9046C17.0559 9.14258 16.242 9.47602 15.6419 10.0695C15.0418 10.6631 14.7046 11.468 14.7046 12.3074V13.4173C14.7046 13.9696 14.2569 14.4173 13.7046 14.4173H13.5713C13.019 14.4173 12.5713 14.865 12.5713 15.4173V16.0547C12.5713 16.6069 13.019 17.0547 13.5713 17.0547H13.7046C14.2569 17.0547 14.7046 17.5024 14.7046 18.0547V21.8569C14.7046 22.4091 15.1523 22.8569 15.7046 22.8569H16.9046C17.4569 22.8569 17.9046 22.4091 17.9046 21.8569V18.0103C17.9046 17.4825 18.3325 17.0547 18.8603 17.0547C19.2497 17.0547 19.6002 16.8184 19.7462 16.4573L20.0152 15.7922Z" fill="#9893A3"/>
</svg>
