<svg width="79" height="29" viewBox="0 0 79 29" fill="none" xmlns="http://www.w3.org/2000/svg">
<path d="M9.75461 1.00043C8.70089 1.00072 7.69043 1.39443 6.94533 2.095C6.20024 2.79557 5.78153 3.74567 5.78122 4.73643V6.43362H3.97618C3.454 6.43321 2.93686 6.52963 2.45435 6.71733C1.97185 6.90504 1.53345 7.18037 1.16422 7.52756C0.794998 7.87473 0.502206 8.28697 0.302595 8.74064C0.102985 9.19434 0.000475699 9.68059 0.000932214 10.1716V13.9062H5.78028V17.3006H3.97525C2.92123 17.3005 1.91032 17.694 1.16484 18.3946C0.419366 19.0952 0.000368188 20.0455 0 21.0366V27.4911H3.97711C4.49879 27.4909 5.01529 27.3941 5.49717 27.206C5.97902 27.0181 6.41677 26.7428 6.78546 26.3957C7.15413 26.0487 7.44648 25.6368 7.64583 25.1834C7.84516 24.7301 7.94759 24.2444 7.94725 23.7539H7.95235V21.2881L7.94171 21.2894V5.57958L7.9505 5.58154V4.73708C7.95141 4.2868 8.14173 3.85513 8.47991 3.53631C8.81806 3.21748 9.27664 3.03739 9.75554 3.03532H16.6584V4.73708C16.657 5.18716 16.466 5.61837 16.1273 5.93641C15.7886 6.25446 15.3298 6.43347 14.8511 6.43427H8.7674V8.47133H14.8501C15.9039 8.47139 16.9144 8.07788 17.6596 7.37737C18.4047 6.67687 18.8234 5.72675 18.8235 4.736V1L9.75461 1.00043ZM5.78122 11.869H2.16975V10.1718C2.17054 9.72097 2.36108 9.28878 2.69975 8.96966C3.0384 8.65055 3.49765 8.47044 3.97711 8.46872H5.78215L5.78122 11.869ZM5.78122 23.7558C5.78042 24.2058 5.59005 24.6373 5.25177 24.9556C4.91348 25.2741 4.45482 25.4536 3.97618 25.4547H2.16882V21.0377C2.16926 20.5873 2.35989 20.1556 2.6988 19.8373C3.03773 19.519 3.49717 19.3403 3.97618 19.3405H5.78122V23.7558ZM8.7674 13.906H13.3263V15.605C13.3245 16.055 13.1334 16.486 12.7948 16.804C12.4562 17.122 11.9975 17.3011 11.5189 17.3021H8.7674V19.3405H11.5198C12.0417 19.3408 12.5585 19.2443 13.0407 19.0566C13.5229 18.869 13.9611 18.5938 14.3301 18.2468C14.6991 17.8999 14.9918 17.4879 15.1913 17.0345C15.3909 16.5812 15.4935 16.0952 15.4932 15.6045H15.4951V11.8685H8.7674V13.906Z" fill="#6C63FF"/>
<path d="M30.6609 12.29H28.2117V20.5376H25.3821V12.29H23.8235V10.9263L25.3821 10.1655V9.40479C25.3821 8.22347 25.6728 7.36068 26.2542 6.81641C26.8355 6.27214 27.7664 6 29.0466 6C30.0238 6 30.8928 6.14535 31.6536 6.43604L30.9299 8.51416C30.3609 8.3348 29.8352 8.24512 29.3528 8.24512C28.9508 8.24512 28.6601 8.36572 28.4807 8.60693C28.3014 8.84196 28.2117 9.14502 28.2117 9.51611V10.1655H30.6609V12.29Z" fill="#2F2E41"/>
<path d="M39.1414 20.5376L38.761 19.2109H38.6125C38.3095 19.6934 37.8796 20.0675 37.323 20.3335C36.7664 20.5933 36.1324 20.7231 35.4211 20.7231C34.2027 20.7231 33.2843 20.3984 32.6658 19.749C32.0473 19.0934 31.738 18.1533 31.738 16.9287V10.1655H34.5676V16.2236C34.5676 16.972 34.7006 17.5348 34.9666 17.9121C35.2325 18.2832 35.6562 18.4688 36.2375 18.4688C37.0292 18.4688 37.6013 18.2059 37.9539 17.6802C38.3064 17.1483 38.4827 16.27 38.4827 15.0454V10.1655H41.3123V20.5376H39.1414Z" fill="#2F2E41"/>
<path d="M51.0173 17.4575C51.0173 18.5213 50.6462 19.3315 49.9041 19.8882C49.1681 20.4448 48.064 20.7231 46.592 20.7231C45.8375 20.7231 45.1943 20.6706 44.6624 20.5654C44.1305 20.4665 43.6326 20.318 43.1687 20.1201V17.7822C43.6944 18.0296 44.2851 18.2368 44.9407 18.4038C45.6025 18.5708 46.1838 18.6543 46.6848 18.6543C47.7115 18.6543 48.2249 18.3574 48.2249 17.7637C48.2249 17.541 48.1568 17.3617 48.0208 17.2256C47.8847 17.0833 47.6497 16.9256 47.3157 16.7524C46.9817 16.5731 46.5364 16.3659 45.9797 16.1309C45.1819 15.7969 44.5943 15.4876 44.217 15.2031C43.8459 14.9186 43.5738 14.5939 43.4006 14.229C43.2336 13.8579 43.1501 13.4033 43.1501 12.8652C43.1501 11.9437 43.5058 11.2324 44.217 10.7314C44.9345 10.2243 45.9488 9.9707 47.26 9.9707C48.5094 9.9707 49.7247 10.2428 50.906 10.7871L50.0525 12.8281C49.533 12.6055 49.0474 12.423 48.5959 12.2808C48.1444 12.1385 47.6837 12.0674 47.2136 12.0674C46.3787 12.0674 45.9612 12.2931 45.9612 12.7446C45.9612 12.9982 46.0942 13.2178 46.3601 13.4033C46.6322 13.5889 47.2229 13.8641 48.1321 14.229C48.9423 14.5568 49.5361 14.863 49.9133 15.1475C50.2906 15.432 50.5689 15.7598 50.7483 16.1309C50.9277 16.502 51.0173 16.9442 51.0173 17.4575Z" fill="#2F2E41"/>
<path d="M57.0208 11.9839C56.4208 11.9839 55.9508 12.1756 55.6106 12.5591C55.2704 12.9364 55.0756 13.4744 55.0261 14.1733H58.9968C58.9845 13.4744 58.802 12.9364 58.4495 12.5591C58.0969 12.1756 57.6207 11.9839 57.0208 11.9839ZM57.4197 20.7231C55.7498 20.7231 54.4447 20.2624 53.5046 19.3408C52.5645 18.4193 52.0945 17.1143 52.0945 15.4258C52.0945 13.6878 52.5274 12.3457 53.3933 11.3994C54.2654 10.4469 55.4683 9.9707 57.0022 9.9707C58.468 9.9707 59.6091 10.3882 60.4255 11.2231C61.2419 12.0581 61.6501 13.2116 61.6501 14.6836V16.0566H54.9612C54.9921 16.8607 55.2302 17.4884 55.6755 17.9399C56.1208 18.3914 56.7455 18.6172 57.5496 18.6172C58.1742 18.6172 58.7649 18.5522 59.3215 18.4224C59.8782 18.2925 60.4596 18.0853 61.0657 17.8008V19.9902C60.5709 20.2376 60.0421 20.4201 59.4792 20.5376C58.9164 20.6613 58.2299 20.7231 57.4197 20.7231Z" fill="#2F2E41"/>
<path d="M66.2805 20.5376H63.4509V6.10205H66.2805V20.5376Z" fill="#2F2E41"/>
<path d="M67.2742 10.1655H70.3728L72.3303 16.001C72.4973 16.5081 72.6117 17.1081 72.6736 17.8008H72.7292C72.7973 17.1637 72.9303 16.5638 73.1282 16.001L75.0486 10.1655H78.0823L73.6941 21.8643C73.2921 22.9466 72.7169 23.7568 71.9685 24.2949C71.2263 24.833 70.3573 25.1021 69.3616 25.1021C68.873 25.1021 68.3936 25.0495 67.9236 24.9443V22.6992C68.2638 22.7796 68.6348 22.8198 69.0369 22.8198C69.5378 22.8198 69.9739 22.6652 70.345 22.356C70.7222 22.0529 71.016 21.5921 71.2263 20.9736L71.3933 20.4634L67.2742 10.1655Z" fill="#2F2E41"/>
</svg>
