<svg width="688" height="573" viewBox="0 0 688 573" fill="none" xmlns="http://www.w3.org/2000/svg">
<g clip-path="url(#clip0_172_4758)">
<path d="M38.0549 183.29C38.0549 207.12 43.7123 226.735 53.5259 243.539C56.765 249.073 60.4418 254.341 64.5214 259.292C100.598 303.313 167.671 327.407 228.292 366.434C407.235 481.633 426.618 297.039 418.536 183.29C415.276 137.392 397.36 95.3498 368.897 63.1589C362.919 56.3887 356.462 50.0553 349.575 44.2076C317.261 16.7529 275.513 0.13916 228.292 0.13916C147.276 0.13916 78.0909 48.8895 50.6599 117.587C42.3203 138.493 38.0426 160.79 38.0549 183.29Z" fill="#9E99FF"/>
<path d="M187.758 41.4163L368.895 63.1591C362.917 56.3889 356.46 50.0555 349.573 44.2078L187.758 41.4163Z" fill="#CFCFDE"/>
<path d="M53.5247 243.539C56.7637 249.073 60.4406 254.341 64.5202 259.292L219.679 240.673L53.5247 243.539Z" fill="#CFCFDE"/>
<path d="M44.329 136.478L307.289 102.451L50.6587 117.587C48.194 123.76 46.0807 130.067 44.329 136.478Z" fill="#CFCFDE"/>
<path d="M400.699 48.9251C400.699 49.3926 400.712 49.8534 400.753 50.3073C400.959 53.1211 401.791 55.8537 403.189 58.306C404.587 60.7584 406.516 62.8687 408.834 64.4834C411.153 66.098 413.804 67.1763 416.594 67.6398C419.383 68.1032 422.241 67.94 424.959 67.1622C427.677 66.3843 430.187 65.0114 432.307 63.1434C434.426 61.2753 436.101 58.9592 437.209 56.3638C438.318 53.7684 438.832 50.9589 438.715 48.1401C438.597 45.3213 437.851 42.5641 436.531 40.0694C436.122 39.2876 435.654 38.5378 435.131 37.8266C432.857 34.6799 429.671 32.3046 426.001 31.0212C422.332 29.7378 418.356 29.608 414.61 30.6494C410.864 31.6907 407.529 33.8531 405.053 36.8448C402.578 39.8365 401.082 43.5137 400.766 47.3803C400.719 47.8884 400.699 48.4034 400.699 48.9251Z" fill="#9E99FF"/>
<path d="M400.694 48.925C400.694 49.3925 400.708 49.8533 400.749 50.3072L429.219 46.8923L400.762 47.3802C400.715 47.8883 400.694 48.4033 400.694 48.925Z" fill="#CFCFDE"/>
<path d="M407.488 58.4849L433.825 61.6491C434.573 60.8176 435.246 59.922 435.836 58.9727L407.488 58.4849Z" fill="#CFCFDE"/>
<path d="M414.959 37.481L436.529 40.0692C436.12 39.2875 435.652 38.5377 435.13 37.8265L414.959 37.481Z" fill="#CFCFDE"/>
<path d="M140.084 390.5C140.304 390.913 140.532 391.314 140.781 391.695C142.285 394.085 144.304 396.109 146.691 397.622C149.079 399.134 151.774 400.096 154.581 400.438C157.388 400.78 160.236 400.492 162.918 399.597C165.599 398.702 168.047 397.221 170.083 395.263C172.118 393.304 173.691 390.918 174.685 388.277C175.679 385.636 176.07 382.806 175.83 379.995C175.589 377.184 174.724 374.462 173.295 372.027C171.867 369.592 169.913 367.506 167.574 365.92C166.845 365.42 166.08 364.977 165.284 364.593C161.797 362.877 157.866 362.269 154.022 362.852C150.177 363.434 146.604 365.179 143.785 367.851C140.966 370.522 139.035 373.992 138.254 377.793C137.473 381.593 137.88 385.541 139.418 389.104C139.615 389.575 139.839 390.039 140.084 390.5Z" fill="#9E99FF"/>
<path d="M140.084 390.5C140.304 390.913 140.532 391.313 140.782 391.695L164.325 375.36L139.418 389.103C139.615 389.574 139.839 390.039 140.084 390.5Z" fill="#CFCFDE"/>
<path d="M150.575 395.765L175.327 386.245C175.596 385.161 175.77 384.056 175.845 382.942L150.575 395.765Z" fill="#CFCFDE"/>
<path d="M147.305 373.721L167.574 365.92C166.846 365.42 166.08 364.977 165.285 364.593L147.305 373.721Z" fill="#CFCFDE"/>
<path d="M5.40018 63.4591C5.07299 63.7938 4.76033 64.1331 4.47182 64.4865C2.64988 66.6441 1.33324 69.18 0.617863 71.9094C-0.0975113 74.6388 -0.19363 77.4931 0.336487 80.2642C0.866604 83.0354 2.00967 85.6537 3.68233 87.9285C5.35499 90.2032 7.51514 92.0771 10.0055 93.4137C12.4959 94.7502 15.2537 95.5158 18.0781 95.6546C20.9025 95.7934 23.7224 95.302 26.3324 94.2161C28.9424 93.1301 31.2768 91.4771 33.1654 89.3774C35.0541 87.2777 36.4495 84.7841 37.25 82.0783C37.5044 81.2338 37.6943 80.3713 37.818 79.4982C38.3922 75.6615 37.773 71.7413 36.0442 68.2665C34.3153 64.7917 31.5599 61.9295 28.1496 60.0658C24.7392 58.2022 20.838 57.4268 16.9721 57.8443C13.1062 58.2617 9.46166 59.852 6.53 62.4005C6.14033 62.7312 5.76531 63.0856 5.40018 63.4591Z" fill="#9E99FF"/>
<path d="M5.39992 63.4588C5.07273 63.7935 4.76006 64.1328 4.47156 64.4862L27.2432 81.8726L6.52973 62.4001C6.14005 62.7309 5.76504 63.0853 5.39992 63.4588Z" fill="#CFCFDE"/>
<path d="M3.57129 75.0334L20.2121 95.6449C21.3292 95.5704 22.4374 95.3978 23.5242 95.1292L3.57129 75.0334Z" fill="#CFCFDE"/>
<path d="M23.619 65.2002L37.2496 82.0779C37.5041 81.2334 37.694 80.3709 37.8176 79.4978L23.619 65.2002Z" fill="#CFCFDE"/>
<path d="M362.157 413.08C362.157 413.08 320.426 414.814 320.426 425.22C320.426 435.626 367.373 425.22 367.373 425.22L362.157 413.08Z" fill="#9E616A"/>
<path d="M424.753 572.673L502.998 567.469L506.476 525.836L523.864 562.265L600.37 551.856C598.632 485.937 570.811 421.753 569.072 413.08C567.333 404.406 563.178 368.567 563.178 368.567C555.579 352.486 515.761 350.977 484.55 352.434C471.613 353.024 460.137 354.134 453.061 354.932C448.383 355.453 445.619 355.834 445.619 355.834C433.152 368.654 425.118 386.122 420.18 405.638C402.375 475.946 424.753 572.673 424.753 572.673Z" fill="#2F2E41"/>
<path d="M511.691 170.22C487.683 170.22 468.22 150.804 468.22 126.852C468.22 102.9 487.683 83.4839 511.691 83.4839C535.698 83.4839 555.161 102.9 555.161 126.852C555.161 150.804 535.698 170.22 511.691 170.22Z" fill="#9E616A"/>
<path d="M541.25 137.262C541.25 137.262 553.421 191.037 572.548 206.649C591.675 222.262 497.78 206.649 497.78 206.649C497.78 206.649 518.646 171.956 502.996 156.344C487.347 140.731 541.25 137.262 541.25 137.262Z" fill="#9E616A"/>
<path d="M452.575 359.304L481.422 362.496L562.119 371.447C562.119 371.447 562.501 370.423 563.179 368.567C569.039 352.625 597.259 275.049 600.372 251.752C603.85 225.731 567.335 194.506 567.335 194.506C567.335 194.506 532.559 187.568 522.127 187.568C511.694 187.568 469.963 203.18 469.963 203.18L454.401 342.841L453.062 354.932L452.575 359.304Z" fill="#CFCFDE"/>
<path opacity="0.15" d="M420.178 405.638L478.653 371.447C478.653 371.447 479.679 368.116 481.418 362.495C482.287 359.685 483.348 356.285 484.548 352.434C491.294 330.82 502.614 295.154 511.69 269.099C525.6 229.201 457.788 340.222 457.788 340.222L454.397 342.841L453.058 354.932C448.381 355.452 445.616 355.834 445.616 355.834C433.149 368.654 425.116 386.122 420.178 405.638Z" fill="#2F2E41"/>
<path d="M497.78 206.649C497.78 206.649 515.168 229.201 501.258 269.099C487.347 308.997 468.221 371.447 468.221 371.447L367.371 430.427L353.461 413.08L447.355 340.222C447.355 340.222 450.833 208.384 468.221 203.18C485.609 197.976 497.78 206.649 497.78 206.649Z" fill="#CFCFDE"/>
<path d="M583.852 358.436C583.852 358.436 559.509 408.743 549.076 403.539C538.643 398.335 575.158 346.293 575.158 346.293L583.852 358.436Z" fill="#9E616A"/>
<path d="M586.46 220.527L678.615 296.854C678.615 296.854 713.391 321.14 649.056 338.487C584.721 355.834 579.505 366.243 579.505 366.243C579.505 366.243 572.55 343.691 563.856 347.161L638.623 310.732L577.766 274.303L586.46 220.527Z" fill="#CFCFDE"/>
<path d="M623.501 162.447C618.664 160.058 607.984 155.235 598.886 149.425C599.524 130.522 597.191 113.363 590.361 104.268C586.528 95.5838 578.478 86.8896 572.173 80.0428C556.689 63.229 522.452 53.8437 516.38 62.2444C470.452 63.149 465.617 99.065 465.617 99.065C465.856 114.088 481.506 114.563 495.216 114.016C493.988 124.271 497.26 134.928 506.734 139.654C524.851 148.691 530.286 160.439 521.227 168.573C512.169 176.707 495.864 198.396 517.604 203.818C539.345 209.241 542.062 220.086 535.721 224.604C529.38 229.123 550.215 216.471 550.215 216.471C550.215 216.471 553.838 238.16 572.861 232.738C574.566 232.252 576.27 231.007 577.945 229.144C583.082 234.776 587.666 238.106 591.12 238.124C610.904 238.229 608.532 216.368 608.532 216.368C608.532 216.368 632.014 222.948 624.687 220.302C617.359 217.656 617.045 206.482 636.515 195.413C655.985 184.343 634.422 167.843 623.501 162.447Z" fill="#2F2E41"/>
<path d="M380.765 219.113L381.08 219.071L380.311 221.989C379.584 226.06 378.527 230.065 377.153 233.966L354.587 319.547C353.867 322.278 352.363 324.741 350.26 326.631C348.158 328.522 345.547 329.76 342.749 330.191L296.731 337.294C293.755 337.753 290.71 337.279 288.016 335.938C285.322 334.597 283.112 332.454 281.691 329.806L237.958 248.312C236.591 246.054 235.343 243.727 234.217 241.341L232.732 238.574L232.964 238.544C228.328 227.603 226.287 215.741 227.001 203.884C227.715 192.027 231.164 180.495 237.079 170.186C242.994 159.877 251.215 151.07 261.103 144.452C270.99 137.834 282.275 133.584 294.079 132.032C305.884 130.48 317.887 131.669 329.155 135.506C340.423 139.343 350.651 145.724 359.041 154.152C367.431 162.58 373.757 172.828 377.525 184.096C381.293 195.363 382.402 207.347 380.765 219.113H380.765Z" fill="#2F2E41"/>
<path d="M293.904 342.885C294.715 342.885 295.524 342.823 296.325 342.699L344.428 335.275C347.483 334.804 350.334 333.453 352.63 331.388C354.927 329.323 356.569 326.634 357.355 323.651L380.942 234.196C382.383 230.1 383.491 225.896 384.255 221.623L384.851 217.709C386.456 205.207 385.126 192.503 380.966 180.602C376.807 168.7 369.931 157.926 360.882 149.13C351.832 140.334 340.858 133.757 328.824 129.918C316.79 126.079 304.027 125.083 291.541 127.009L291.749 128.348C304.099 126.449 316.723 127.456 328.613 131.289C340.503 135.121 351.331 141.673 360.233 150.421C369.135 159.169 375.865 169.872 379.885 181.676C383.905 193.479 385.105 206.056 383.388 218.404L382.929 221.332C382.172 225.568 381.073 229.738 379.644 233.799L356.041 323.306C355.322 326.034 353.821 328.493 351.721 330.381C349.621 332.269 347.014 333.505 344.22 333.935L296.117 341.36C293.146 341.816 290.107 341.341 287.417 340.002C284.727 338.663 282.52 336.525 281.098 333.882L279.901 334.522C281.26 337.048 283.279 339.159 285.745 340.632C288.211 342.105 291.03 342.883 293.904 342.885Z" fill="#CFCFDE"/>
<path d="M281.702 238.564L310.971 318.291L309.321 318.894L280.052 239.167L281.702 238.564Z" fill="#CFCFDE"/>
<path d="M329.491 231.19L331.246 231.267L327.51 316.091L325.755 316.014L329.491 231.19Z" fill="#CFCFDE"/>
<path d="M297.97 383.442L359.606 373.926C360.065 373.852 360.475 373.601 360.748 373.226C361.022 372.852 361.135 372.384 361.064 371.926C360.993 371.469 360.743 371.057 360.37 370.783C359.996 370.508 359.528 370.392 359.069 370.46L297.433 379.976C297.204 380.01 296.984 380.089 296.786 380.208C296.587 380.327 296.414 380.485 296.277 380.671C296.14 380.857 296.041 381.068 295.985 381.293C295.93 381.517 295.92 381.75 295.955 381.979C295.991 382.207 296.071 382.426 296.192 382.623C296.312 382.821 296.471 382.992 296.658 383.128C296.845 383.264 297.058 383.362 297.283 383.416C297.508 383.47 297.742 383.478 297.97 383.442Z" fill="#2F2E41"/>
<path d="M296.39 370.379L358.028 360.866C358.257 360.832 358.477 360.753 358.675 360.634C358.874 360.515 359.046 360.358 359.184 360.172C359.321 359.986 359.42 359.774 359.475 359.55C359.531 359.326 359.541 359.093 359.505 358.864C359.47 358.636 359.39 358.417 359.269 358.22C359.149 358.022 358.99 357.851 358.803 357.715C358.616 357.579 358.403 357.481 358.178 357.427C357.953 357.374 357.719 357.365 357.49 357.402L295.853 366.915C295.624 366.949 295.403 367.028 295.205 367.147C295.007 367.266 294.834 367.423 294.696 367.609C294.559 367.795 294.46 368.006 294.405 368.231C294.35 368.455 294.339 368.688 294.375 368.917C294.41 369.145 294.491 369.364 294.611 369.561C294.732 369.758 294.89 369.93 295.077 370.066C295.265 370.202 295.477 370.3 295.702 370.353C295.927 370.407 296.161 370.416 296.39 370.379Z" fill="#2F2E41"/>
<path d="M294.806 357.325L356.445 347.811C356.904 347.738 357.314 347.487 357.587 347.112C357.86 346.738 357.974 346.27 357.903 345.813C357.832 345.355 357.582 344.944 357.208 344.669C356.835 344.395 356.367 344.279 355.908 344.347L294.268 353.86C293.81 353.934 293.399 354.185 293.126 354.56C292.853 354.934 292.74 355.401 292.811 355.859C292.882 356.317 293.131 356.728 293.505 357.002C293.879 357.277 294.346 357.393 294.806 357.325H294.806Z" fill="#2F2E41"/>
<path d="M330.705 391.041C318.479 392.928 307.514 387.659 306.213 379.273L350.488 372.44C351.789 380.826 342.931 389.154 330.705 391.041Z" fill="#2F2E41"/>
<path d="M308.549 221.768C311.179 221.363 313.355 219.289 314.548 217.899C314.939 217.443 315.32 216.97 315.702 216.497C317.091 214.771 318.403 213.142 320.229 212.293C324.261 210.416 329.012 213.037 333.125 215.85L334.119 214.404C329.597 211.311 324.323 208.454 319.486 210.704C317.289 211.726 315.786 213.593 314.332 215.399C313.962 215.858 313.593 216.317 313.214 216.759C311.973 218.204 309.499 220.546 306.849 220.006C305.732 219.681 304.693 219.132 303.796 218.393C303.112 217.884 302.39 217.429 301.635 217.033C300.105 216.301 298.391 216.037 296.711 216.274C295.03 216.511 293.457 217.238 292.19 218.365C291.739 218.792 291.311 219.243 290.909 219.717C290.118 220.616 289.372 221.464 288.401 221.772C286.965 222.23 285.447 221.412 283.839 220.547C282.181 219.654 280.466 218.73 278.521 218.958C278.458 218.966 278.395 218.974 278.332 218.984C274.871 219.518 273.276 223.336 272.373 226.186L274.049 226.714C275.275 222.84 276.769 220.914 278.727 220.699C280.12 220.536 281.521 221.29 283.004 222.089C284.864 223.09 286.788 224.126 288.934 223.443C290.371 222.987 291.316 221.912 292.229 220.873C292.589 220.448 292.972 220.042 293.376 219.658C294.385 218.777 295.63 218.207 296.958 218.02C298.286 217.833 299.641 218.036 300.855 218.604C301.528 218.96 302.172 219.368 302.782 219.824C303.872 220.711 305.138 221.358 306.496 221.723C307.172 221.86 307.868 221.876 308.549 221.768Z" fill="#CFCFDE"/>
</g>
<defs>
<clipPath id="clip0_172_4758">
<rect width="688" height="572.534" fill="white" transform="matrix(-1 0 0 1 688 0.13916)"/>
</clipPath>
</defs>
</svg>
