<svg width="32" height="32" viewBox="0 0 32 32" fill="none" xmlns="http://www.w3.org/2000/svg">
<rect width="32" height="32" rx="1" fill="white"/>
<path d="M13.0715 14.0743H10.4679V21.6988H13.0715V14.0743Z" fill="#9893A3"/>
<path d="M12.6338 10.5161C12.3856 10.3658 12.094 10.2856 11.7957 10.2856C11.5967 10.2856 11.3996 10.3214 11.2158 10.3907C11.0321 10.4601 10.8652 10.5617 10.7249 10.6898C10.5845 10.8179 10.4735 10.97 10.3981 11.1372C10.3227 11.3043 10.2845 11.4834 10.2857 11.6641C10.2874 11.9348 10.3774 12.199 10.5444 12.4233C10.7113 12.6477 10.9478 12.8221 11.2238 12.9246C11.4999 13.0271 11.8033 13.0532 12.0956 12.9994C12.388 12.9456 12.6562 12.8145 12.8666 12.6225C13.0769 12.4305 13.2198 12.1863 13.2774 11.9207C13.335 11.655 13.3046 11.3799 13.19 11.1299C13.0755 10.8799 12.8819 10.6663 12.6338 10.5161Z" fill="#9893A3"/>
<path d="M17.2507 14.0739H14.7426L14.7339 21.7142H17.3375V17.9413C17.3375 16.9489 17.5458 15.9879 18.8996 15.9879C20.2535 15.9879 20.2535 17.13 20.2535 18.0122V21.6985H22.8571V17.516C22.8571 15.4602 22.3277 13.8849 19.7241 13.8849C19.2279 13.8672 18.7357 13.9722 18.3001 14.1886C17.8645 14.405 17.5018 14.7247 17.2507 15.1136V14.0739Z" fill="#9893A3"/>
</svg>
