<svg width="688" height="467" viewBox="0 0 688 467" fill="none" xmlns="http://www.w3.org/2000/svg">
<g clip-path="url(#clip0_172_4800)">
<path d="M46.3007 351.557C43.0338 351.557 39.7601 351.692 36.5631 351.964L36.0978 352.003C14.8921 353.879 -0.618944 364.763 0.0189811 377.321L0.142307 379.592C0.223634 381.027 0.310285 382.571 0.381608 384.283C0.420237 385.127 1.57149 385.775 3.00401 385.775H524.614C561.39 385.552 598.033 385.27 633.518 384.939C640.174 384.953 646.825 384.608 653.443 383.906C663.304 382.738 670.149 380.422 674.37 376.827H674.371C679.62 372.369 679.785 366.756 679.468 360.413C678.822 347.606 678.18 334.152 677.54 320.738C676.975 308.917 676.412 297.127 675.85 285.839C675.502 279.141 674.729 273.228 668.768 268.709C662.307 263.822 650.524 261.345 633.746 261.345C633.544 261.345 633.342 261.345 633.137 261.346C580.556 261.533 528.456 279.627 503.495 306.371C500.62 309.45 497.942 312.747 495.352 315.936C491.524 320.647 487.567 325.517 482.845 329.873C480.288 332.263 477.523 334.42 474.583 336.318C474.381 336.458 474.149 336.608 473.903 336.751C473.342 337.117 472.755 337.469 472.183 337.784C468.835 339.719 465.306 341.325 461.647 342.578L461.278 342.702C461 342.801 460.699 342.901 460.397 342.992C458.284 343.67 456.089 344.257 453.89 344.732C444.375 346.831 433.556 347.334 421.733 346.226C410.877 345.182 400.16 342.996 389.76 339.705C378.813 336.243 368.566 331.926 358.656 327.751C354.303 325.917 349.801 324.021 345.305 322.224C344.46 321.886 343.628 321.555 342.785 321.225C337.293 319.083 332.314 317.314 327.564 315.817C315.796 312.093 303.614 309.835 291.293 309.093C278.216 308.377 266.692 309.728 257.049 313.101C254.39 314.027 251.802 315.143 249.303 316.441C237.882 322.377 230.84 331.137 224.032 339.609C215.562 350.147 206.804 361.045 189.51 366.694C169.554 373.218 140.425 370.508 119.816 365.794C113.337 364.312 106.866 362.607 100.607 360.957C98.0792 360.29 95.5497 359.629 93.0184 358.971C88.0443 357.686 83.9734 356.701 80.2071 355.87L79.0159 355.605C78.3533 355.461 77.69 355.317 77.0148 355.18C72.5413 354.24 68.3757 353.5 64.2735 352.918L63.3029 352.777C61.3571 352.52 59.538 352.307 57.7528 352.127L57.0403 352.056C53.544 351.723 49.9257 351.557 46.3007 351.557Z" fill="white"/>
<path d="M585.676 365.572C600.353 352.336 622.184 345.681 640.496 353.103C621.712 363.54 607.222 380.29 599.59 400.39C596.674 408.152 594.239 417.089 587.069 421.245C582.607 423.831 577.057 423.957 572.054 422.709C567.052 421.461 562.466 418.958 557.943 416.481L556.656 416.452C562.433 397.543 570.999 378.809 585.676 365.572Z" fill="#CFCFDE"/>
<path d="M640.394 353.505C624.175 355.602 609.03 362.761 597.108 373.963C594.499 376.329 592.278 379.092 590.529 382.15C588.921 385.184 588.154 388.594 588.308 392.025C588.387 395.227 588.838 398.493 588.139 401.658C587.756 403.273 587.037 404.789 586.028 406.106C585.02 407.424 583.744 408.513 582.285 409.302C578.702 411.364 574.591 412.014 570.55 412.509C566.062 413.06 561.393 413.561 557.508 416.079C557.038 416.385 556.592 415.636 557.062 415.331C563.82 410.949 572.372 412.543 579.638 409.618C583.029 408.254 586.03 405.858 587.092 402.236C588.02 399.069 587.558 395.7 587.449 392.459C587.25 389.114 587.872 385.771 589.262 382.723C590.85 379.585 592.96 376.742 595.502 374.313C601.137 368.754 607.611 364.116 614.685 360.569C622.737 356.476 631.429 353.792 640.386 352.633C640.94 352.562 640.945 353.434 640.394 353.505H640.394Z" fill="white"/>
<path d="M600.734 370.13C599.128 367.873 598.375 365.118 598.611 362.357C598.847 359.596 600.055 357.009 602.021 355.058C602.42 354.664 603.05 355.266 602.651 355.66C600.817 357.474 599.691 359.884 599.477 362.456C599.262 365.027 599.974 367.591 601.482 369.683C601.809 370.138 601.06 370.583 600.734 370.13V370.13Z" fill="white"/>
<path d="M588.054 390.407C593.627 391.395 599.368 390.244 604.131 387.185C604.603 386.881 605.049 387.63 604.578 387.933C599.615 391.108 593.638 392.293 587.841 391.252C587.288 391.152 587.504 390.307 588.054 390.407Z" fill="white"/>
<path d="M622.808 357.63C623.248 358.633 623.93 359.511 624.792 360.185C625.655 360.859 626.671 361.308 627.75 361.491C628.303 361.584 628.087 362.428 627.537 362.336C626.346 362.128 625.224 361.631 624.269 360.888C623.315 360.146 622.556 359.18 622.06 358.077C622.005 357.977 621.99 357.859 622.018 357.748C622.046 357.637 622.115 357.541 622.211 357.479C622.31 357.421 622.429 357.404 622.54 357.432C622.652 357.46 622.748 357.531 622.808 357.63Z" fill="white"/>
<path d="M660.661 416.935C660.314 416.887 659.966 416.839 659.614 416.796C654.942 416.175 650.227 415.936 645.516 416.079C645.152 416.085 644.783 416.095 644.419 416.111C633.074 416.578 621.913 419.149 611.505 423.693C607.365 425.505 603.369 427.63 599.551 430.049C594.279 433.39 588.828 437.432 582.934 438.794C582.321 438.943 581.699 439.054 581.072 439.126L556.721 418.025C556.69 417.949 556.653 417.879 556.622 417.803L555.611 417.005C555.799 416.866 555.997 416.727 556.185 416.588C556.294 416.507 556.408 416.431 556.517 416.35C556.592 416.298 556.666 416.246 556.73 416.194C556.755 416.177 556.78 416.16 556.8 416.148C556.864 416.096 556.929 416.055 556.988 416.009C558.093 415.226 559.206 414.448 560.327 413.678C560.331 413.672 560.331 413.672 560.342 413.671C568.823 407.718 577.979 402.792 587.62 398.997C587.909 398.888 588.203 398.773 588.503 398.673C592.845 397.057 597.311 395.8 601.857 394.912C604.348 394.434 606.862 394.083 609.388 393.859C615.917 393.294 622.495 393.761 628.879 395.241C641.606 398.195 653.247 405.189 660.142 416.096C660.318 416.375 660.489 416.65 660.661 416.935Z" fill="#CFCFDE"/>
<path d="M660.338 417.196C646.127 409.099 629.728 405.689 613.469 407.45C609.962 407.767 606.528 408.635 603.291 410.023C600.182 411.476 597.518 413.736 595.577 416.568C593.714 419.173 592.11 422.053 589.646 424.158C588.37 425.218 586.884 425.995 585.286 426.439C583.688 426.883 582.014 426.984 580.374 426.735C576.273 426.222 572.6 424.264 569.075 422.225C565.161 419.96 561.131 417.546 556.514 417.217C555.955 417.177 556.049 416.311 556.608 416.351C564.64 416.924 570.509 423.35 578.071 425.393C581.599 426.346 585.436 426.241 588.463 423.989C591.11 422.02 592.767 419.051 594.63 416.398C596.484 413.607 598.991 411.313 601.935 409.716C605.09 408.168 608.486 407.169 611.977 406.762C619.82 405.718 627.779 405.916 635.562 407.347C644.453 408.93 653.008 412.025 660.856 416.496C661.342 416.773 660.821 417.472 660.338 417.196V417.196Z" fill="white"/>
<path d="M618.671 406.574C618.746 403.804 619.802 401.151 621.652 399.089C623.501 397.026 626.023 395.689 628.766 395.315C629.322 395.242 629.462 396.102 628.906 396.176C626.35 396.519 624.002 397.765 622.284 399.689C620.566 401.613 619.591 404.088 619.537 406.668C619.524 407.229 618.659 407.132 618.671 406.574V406.574Z" fill="white"/>
<path d="M596.348 415.123C600.203 419.271 605.479 421.811 611.123 422.239C611.682 422.28 611.588 423.147 611.029 423.105C605.157 422.649 599.672 419.994 595.669 415.67C595.288 415.257 595.968 414.713 596.348 415.123H596.348Z" fill="white"/>
<path d="M643.815 409.894C643.563 410.96 643.58 412.071 643.863 413.129C644.146 414.187 644.687 415.158 645.438 415.955C645.824 416.362 645.143 416.906 644.76 416.501C643.934 415.617 643.338 414.544 643.022 413.376C642.707 412.208 642.682 410.98 642.95 409.8C642.966 409.687 643.024 409.584 643.113 409.512C643.202 409.44 643.315 409.405 643.429 409.414C643.544 409.427 643.649 409.485 643.721 409.574C643.793 409.664 643.827 409.779 643.815 409.894Z" fill="white"/>
<path d="M201.46 378.737C213.478 360.494 234.977 347.297 256.625 350.137C239.436 366.53 228.595 388.479 226.02 412.101C225.059 421.215 224.94 431.451 218.426 437.893C214.373 441.9 208.471 443.581 202.774 443.639C197.076 443.696 191.476 442.297 185.95 440.906L184.566 441.233C185.489 419.402 189.441 396.98 201.46 378.737Z" fill="#CFCFDE"/>
<path d="M256.627 350.596C239.864 357.354 225.656 369.227 216.019 384.528C213.886 387.785 212.279 391.358 211.258 395.116C210.382 398.809 210.509 402.669 211.628 406.296C212.602 409.698 213.993 413.066 214.125 416.646C214.165 418.48 213.817 420.301 213.104 421.991C212.392 423.681 211.33 425.201 209.989 426.451C206.73 429.654 202.514 431.493 198.33 433.149C193.683 434.987 188.828 436.822 185.374 440.598C184.955 441.055 184.27 440.379 184.688 439.922C190.698 433.353 200.288 432.678 207.247 427.526C210.494 425.123 213.037 421.725 213.166 417.555C213.278 413.909 211.847 410.435 210.83 406.999C209.687 403.477 209.424 399.729 210.062 396.081C210.889 392.284 212.355 388.654 214.399 385.349C218.88 377.834 224.515 371.072 231.095 365.309C238.569 358.69 247.12 353.399 256.377 349.666C256.95 349.435 257.197 350.366 256.627 350.596L256.627 350.596Z" fill="white"/>
<path d="M218.832 379.418C216.487 377.452 214.916 374.715 214.401 371.696C213.885 368.678 214.459 365.574 216.019 362.94C216.336 362.408 217.177 362.876 216.859 363.409C215.402 365.86 214.868 368.751 215.354 371.561C215.839 374.371 217.313 376.914 219.508 378.732C219.984 379.128 219.306 379.812 218.832 379.418Z" fill="white"/>
<path d="M210.906 404.635C217.142 404.141 222.962 401.312 227.206 396.713C227.626 396.257 228.311 396.934 227.892 397.389C223.466 402.167 217.403 405.098 210.913 405.598C210.295 405.646 210.291 404.682 210.906 404.635H210.906Z" fill="white"/>
<path d="M238.966 359.903C239.715 360.854 240.688 361.603 241.798 362.083C242.908 362.564 244.12 362.761 245.325 362.658C245.942 362.602 245.946 363.566 245.332 363.621C244 363.729 242.662 363.51 241.435 362.981C240.207 362.453 239.128 361.632 238.29 360.589C238.203 360.498 238.154 360.376 238.153 360.25C238.152 360.123 238.2 360.001 238.285 359.908C238.375 359.818 238.497 359.767 238.625 359.766C238.752 359.765 238.875 359.814 238.966 359.903H238.966Z" fill="white"/>
<path d="M295.936 412.793C295.552 412.838 295.167 412.884 294.778 412.936C289.609 413.573 284.5 414.63 279.501 416.095C279.113 416.202 278.721 416.316 278.337 416.434C266.332 420.093 255.11 425.949 245.242 433.707C241.318 436.798 237.634 440.183 234.223 443.833C229.513 448.874 224.807 454.715 218.882 457.813C218.268 458.143 217.633 458.435 216.983 458.687L185.072 442.898C185.018 442.826 184.959 442.76 184.904 442.688L183.602 442.116C183.764 441.915 183.937 441.711 184.1 441.51C184.194 441.393 184.295 441.28 184.389 441.163C184.454 441.087 184.519 441.01 184.573 440.937C184.595 440.912 184.617 440.886 184.635 440.868C184.689 440.795 184.747 440.733 184.798 440.667C185.762 439.522 186.736 438.381 187.72 437.245C187.724 437.237 187.724 437.237 187.735 437.233C195.255 428.596 203.561 420.511 212.83 413.944C213.109 413.747 213.391 413.542 213.685 413.351C217.879 410.415 222.306 407.826 226.922 405.611C229.453 404.407 232.044 403.331 234.684 402.388C241.51 399.966 248.675 398.634 255.914 398.44C270.347 398.055 284.742 402.294 295.148 412.04C295.415 412.29 295.674 412.536 295.936 412.793Z" fill="#CFCFDE"/>
<path d="M295.664 413.163C278.214 408.459 259.726 409.377 242.827 415.788C239.164 417.103 235.732 418.988 232.656 421.373C229.734 423.793 227.514 426.952 226.225 430.522C224.957 433.826 224.041 437.353 221.992 440.291C220.921 441.779 219.548 443.024 217.962 443.944C216.376 444.863 214.614 445.437 212.792 445.628C208.262 446.221 203.79 445.15 199.453 443.95C194.637 442.618 189.656 441.158 184.627 442.091C184.017 442.205 183.878 441.252 184.486 441.139C193.236 439.515 201.299 444.754 209.955 444.834C213.993 444.871 218.068 443.69 220.679 440.439C222.963 437.596 223.91 433.96 225.165 430.603C226.372 427.102 228.416 423.951 231.12 421.423C234.065 418.889 237.419 416.875 241.039 415.467C249.138 412.167 257.705 410.163 266.427 409.526C276.376 408.745 286.386 409.672 296.023 412.269C296.62 412.43 296.257 413.323 295.664 413.163Z" fill="white"/>
<path d="M248.147 413.403C247.457 410.419 247.85 407.288 249.254 404.567C250.659 401.846 252.984 399.714 255.814 398.55C256.388 398.317 256.777 399.198 256.203 399.432C253.565 400.51 251.399 402.497 250.097 405.033C248.794 407.569 248.44 410.488 249.099 413.262C249.241 413.865 248.289 414.003 248.147 413.403H248.147Z" fill="white"/>
<path d="M226.648 428.762C231.925 432.124 238.273 433.372 244.429 432.258C245.038 432.147 245.178 433.1 244.569 433.21C238.162 434.358 231.557 433.046 226.074 429.535C225.552 429.2 226.129 428.428 226.648 428.762V428.762Z" fill="white"/>
<path d="M275.963 409.953C275.989 411.163 276.315 412.347 276.912 413.4C277.509 414.452 278.358 415.34 279.383 415.983C279.909 416.311 279.332 417.082 278.809 416.756C277.681 416.041 276.744 415.059 276.082 413.898C275.42 412.736 275.052 411.43 275.011 410.093C274.996 409.968 275.03 409.841 275.105 409.74C275.181 409.638 275.292 409.569 275.416 409.547C275.542 409.529 275.671 409.561 275.773 409.637C275.875 409.713 275.943 409.827 275.963 409.953V409.953Z" fill="white"/>
<path d="M286.993 241.964C287.79 241.17 288.404 240.21 288.791 239.153C289.178 238.096 289.329 236.967 289.232 235.845C289.136 234.724 288.795 233.637 288.234 232.661C287.672 231.686 286.904 230.845 285.983 230.199L298.543 169.364L284.992 173.642L274.886 232.496C273.904 234.116 273.55 236.041 273.891 237.905C274.233 239.77 275.245 241.444 276.738 242.611C278.23 243.778 280.098 244.357 281.988 244.238C283.878 244.118 285.659 243.309 286.993 241.964Z" fill="#FFB6B6"/>
<path d="M316.025 79.349L307.631 73.0077C307.631 73.0077 300.226 72.4829 298.915 85.8473C297.603 99.2117 289.392 150.504 289.392 150.504L276.547 210.042L294.327 213.948L308.085 149.696L321.857 105.368L316.025 79.349Z" fill="#CFCFDE"/>
<path d="M309.63 189.516L269.365 158.183C268.738 157.694 268.33 156.976 268.231 156.186C268.133 155.397 268.351 154.6 268.838 153.971L296.234 118.71C296.723 118.082 297.441 117.674 298.23 117.575C299.019 117.476 299.815 117.695 300.443 118.183L340.709 149.516C341.336 150.005 341.743 150.723 341.842 151.513C341.941 152.302 341.723 153.099 341.235 153.727L313.839 188.989C313.35 189.617 312.632 190.025 311.844 190.123C311.055 190.222 310.259 190.004 309.63 189.516Z" fill="#2F2E41"/>
<path d="M309.409 186.274L272.559 157.599C272.003 157.164 271.641 156.527 271.553 155.826C271.465 155.125 271.659 154.417 272.092 153.859L296.928 121.893C297.362 121.336 297.999 120.973 298.699 120.886C299.4 120.798 300.107 120.992 300.664 121.425L337.514 150.1C338.071 150.534 338.433 151.172 338.521 151.873C338.608 152.574 338.415 153.281 337.982 153.84L313.146 185.806C312.712 186.363 312.075 186.725 311.374 186.813C310.674 186.901 309.967 186.707 309.409 186.274Z" fill="white"/>
<path d="M277.39 156.786C277.251 156.677 277.161 156.518 277.139 156.342C277.117 156.167 277.165 155.99 277.273 155.851L289.802 139.725C289.911 139.585 290.07 139.495 290.245 139.473C290.332 139.462 290.42 139.468 290.504 139.491C290.589 139.515 290.667 139.554 290.736 139.608C290.805 139.662 290.863 139.728 290.906 139.804C290.95 139.88 290.978 139.964 290.988 140.051C290.999 140.138 290.993 140.226 290.97 140.31C290.947 140.395 290.907 140.474 290.853 140.543L278.324 156.669C278.216 156.808 278.057 156.899 277.882 156.92C277.706 156.942 277.53 156.894 277.39 156.786Z" fill="white"/>
<path d="M279.467 158.402C279.328 158.293 279.237 158.134 279.215 157.958C279.193 157.783 279.242 157.606 279.35 157.467L291.879 141.341C291.987 141.201 292.146 141.111 292.322 141.089C292.497 141.067 292.674 141.115 292.813 141.224C292.952 141.332 293.043 141.492 293.065 141.667C293.087 141.842 293.038 142.019 292.93 142.159L280.401 158.285C280.292 158.424 280.133 158.515 279.958 158.537C279.783 158.558 279.606 158.51 279.467 158.402Z" fill="white"/>
<path d="M288.641 150.882C288.502 150.773 288.412 150.614 288.39 150.438C288.368 150.263 288.416 150.086 288.524 149.947L293.955 142.957C294.009 142.887 294.076 142.829 294.152 142.786C294.228 142.743 294.312 142.715 294.398 142.704C294.485 142.693 294.573 142.699 294.658 142.722C294.742 142.745 294.821 142.785 294.89 142.839C294.959 142.893 295.017 142.959 295.06 143.036C295.104 143.112 295.131 143.196 295.142 143.283C295.153 143.369 295.147 143.458 295.123 143.542C295.1 143.626 295.06 143.705 295.006 143.775L289.575 150.765C289.467 150.904 289.308 150.995 289.133 151.017C288.957 151.039 288.781 150.99 288.641 150.882Z" fill="white"/>
<path d="M291.441 164.599C291.302 164.491 291.211 164.331 291.189 164.156C291.168 163.981 291.216 163.804 291.324 163.664L311.104 138.206C311.157 138.137 311.224 138.08 311.3 138.036C311.376 137.993 311.46 137.965 311.546 137.954C311.633 137.944 311.721 137.95 311.806 137.973C311.89 137.996 311.969 138.036 312.038 138.089C312.107 138.143 312.165 138.21 312.208 138.286C312.251 138.362 312.279 138.446 312.29 138.533C312.301 138.619 312.294 138.708 312.271 138.792C312.248 138.876 312.208 138.955 312.155 139.024L292.375 164.482C292.267 164.622 292.107 164.712 291.932 164.734C291.757 164.756 291.581 164.708 291.441 164.599Z" fill="white"/>
<path d="M293.518 166.215C293.379 166.107 293.288 165.947 293.266 165.772C293.244 165.597 293.293 165.42 293.401 165.28L313.18 139.822C313.234 139.753 313.301 139.695 313.377 139.652C313.453 139.609 313.536 139.581 313.623 139.57C313.71 139.559 313.798 139.566 313.882 139.589C313.967 139.612 314.045 139.652 314.114 139.705C314.183 139.759 314.241 139.826 314.284 139.902C314.328 139.978 314.356 140.062 314.366 140.148C314.377 140.235 314.371 140.323 314.348 140.408C314.325 140.492 314.285 140.571 314.231 140.64L294.452 166.098C294.343 166.237 294.184 166.328 294.009 166.35C293.834 166.372 293.657 166.323 293.518 166.215Z" fill="white"/>
<path d="M298.231 169.883C298.092 169.775 298.002 169.615 297.98 169.44C297.958 169.265 298.006 169.088 298.114 168.948L317.894 143.49C317.948 143.421 318.014 143.364 318.09 143.32C318.166 143.277 318.25 143.249 318.337 143.238C318.424 143.227 318.512 143.234 318.596 143.257C318.68 143.28 318.759 143.32 318.828 143.373C318.897 143.427 318.955 143.494 318.998 143.57C319.041 143.646 319.069 143.73 319.08 143.817C319.091 143.903 319.084 143.992 319.061 144.076C319.038 144.16 318.999 144.239 318.945 144.308L299.166 169.766C299.057 169.906 298.898 169.996 298.723 170.018C298.547 170.04 298.371 169.991 298.231 169.883Z" fill="white"/>
<path d="M300.308 171.499C300.169 171.39 300.078 171.231 300.056 171.056C300.035 170.88 300.083 170.704 300.191 170.564L319.971 145.106C320.024 145.037 320.091 144.979 320.167 144.936C320.243 144.893 320.327 144.865 320.413 144.854C320.5 144.843 320.588 144.85 320.672 144.873C320.757 144.896 320.836 144.935 320.905 144.989C320.974 145.043 321.031 145.11 321.075 145.186C321.118 145.262 321.146 145.346 321.157 145.432C321.167 145.519 321.161 145.607 321.138 145.692C321.115 145.776 321.075 145.855 321.022 145.924L301.242 171.382C301.134 171.521 300.974 171.612 300.799 171.634C300.624 171.656 300.448 171.607 300.308 171.499Z" fill="white"/>
<path d="M305.022 175.167C304.882 175.059 304.792 174.899 304.77 174.724C304.748 174.549 304.797 174.372 304.905 174.232L324.684 148.774C324.738 148.705 324.805 148.647 324.881 148.604C324.957 148.561 325.04 148.533 325.127 148.522C325.214 148.511 325.302 148.518 325.386 148.541C325.47 148.564 325.549 148.604 325.618 148.657C325.687 148.711 325.745 148.778 325.788 148.854C325.832 148.93 325.859 149.014 325.87 149.101C325.881 149.187 325.875 149.275 325.852 149.36C325.828 149.444 325.789 149.523 325.735 149.592L305.956 175.05C305.847 175.189 305.688 175.28 305.513 175.302C305.338 175.324 305.161 175.275 305.022 175.167Z" fill="white"/>
<path d="M307.098 176.783C306.959 176.674 306.868 176.515 306.846 176.34C306.825 176.164 306.873 175.988 306.981 175.848L326.761 150.39C326.869 150.251 327.028 150.161 327.203 150.14C327.378 150.118 327.554 150.167 327.694 150.275C327.833 150.383 327.923 150.542 327.945 150.717C327.967 150.892 327.919 151.068 327.812 151.208L308.032 176.666C307.924 176.805 307.764 176.896 307.589 176.918C307.414 176.94 307.238 176.891 307.098 176.783Z" fill="white"/>
<path d="M274.04 206.348C274.191 206.348 274.314 206.226 274.314 206.075C274.314 205.924 274.191 205.801 274.04 205.801C273.889 205.801 273.767 205.924 273.767 206.075C273.767 206.226 273.889 206.348 274.04 206.348Z" fill="white"/>
<path d="M313.868 17.8696C312.906 23.0388 311.33 28.0741 309.172 32.8682C296.816 59.0279 332.004 50.5012 344.579 50.5012C358.328 50.5012 371.483 57.7367 369.474 25.587C368.616 11.8541 358.328 0.672852 344.579 0.672852C332.835 0.672852 316.323 5.89686 313.868 17.8696Z" fill="#2F2E41"/>
<path d="M357.395 401.539H345.681L340.106 356.321H357.395V401.539Z" fill="#FFB6B6"/>
<path d="M363.578 421.851H355.177L353.677 413.914L349.837 421.851H327.556C326.488 421.852 325.448 421.51 324.588 420.877C323.728 420.243 323.092 419.351 322.775 418.331C322.457 417.31 322.473 416.215 322.821 415.205C323.17 414.194 323.832 413.322 324.71 412.714L342.503 400.417V392.392L361.218 393.51L363.578 421.851Z" fill="#2F2E41"/>
<path d="M426.989 386.744L417.588 393.74L386.154 360.784L400.028 350.458L426.989 386.744Z" fill="#FFB6B6"/>
<path d="M444.061 399.352L437.32 404.368L431.384 398.895L433.035 407.557L415.156 420.863C414.299 421.501 413.261 421.848 412.193 421.853C411.125 421.859 410.083 421.522 409.22 420.893C408.356 420.264 407.716 419.376 407.393 418.357C407.07 417.338 407.081 416.243 407.424 415.23L414.369 394.737L409.585 388.297L425.269 378.018L444.061 399.352Z" fill="#2F2E41"/>
<path d="M319.029 193.43L374.636 184.762L363.578 151.469H319.029V193.43Z" fill="#FFB6B6"/>
<path d="M371.033 168.237C371.033 168.237 393.259 187.454 383.004 242.237L370.485 295.916L404.594 355.18L387.25 364.648L345.216 306.181L325.982 261.028L315.808 181.892L371.033 168.237Z" fill="#2F2E41"/>
<path d="M336.584 273.896L335.247 294.615L339.16 355.969L358.588 362.664L362.268 299.8L336.584 273.896Z" fill="#2F2E41"/>
<path d="M330.611 57.3967L352.105 58.236L360.672 72.4671L380.217 76.2856L368.549 135.358L370.694 168.982L351.233 168.863C337.208 168.778 323.644 173.877 313.144 183.184L313.726 139.538L305.355 106.956L307.237 72.7928L322.96 70.8259L330.611 57.3967Z" fill="#CFCFDE"/>
<path d="M342.519 50.4951C353.692 50.4951 362.749 41.4308 362.749 30.2495C362.749 19.0682 353.692 10.0039 342.519 10.0039C331.346 10.0039 322.289 19.0682 322.289 30.2495C322.289 41.4308 331.346 50.4951 342.519 50.4951Z" fill="#FFB6B6"/>
<path d="M328.781 9.61192C332.326 7.44914 336.386 6.2792 340.538 6.22443C344.689 6.16966 348.779 7.23207 352.379 9.30057C355.98 11.3691 358.959 14.3677 361.005 17.9829C363.052 21.5981 364.09 25.6971 364.011 29.8512C353.703 32.4413 342.874 34.4234 331.881 30.4708L329.285 24.1122L327.755 30.4755C324.407 31.8449 321.05 33.0035 317.694 30.4623C317.557 26.3198 318.509 22.2139 320.454 18.5549C322.4 14.896 325.271 11.8123 328.781 9.61192Z" fill="#2F2E41"/>
<path d="M376.475 209.8L379.202 234.568C379.392 235.186 379.775 235.726 380.295 236.11C380.814 236.495 381.443 236.702 382.089 236.702H394.66C395.306 236.702 395.935 236.495 396.455 236.11C396.975 235.726 397.358 235.186 397.548 234.568L399.806 215.584C400.458 215.904 401.177 216.064 401.903 216.052C402.629 216.04 403.342 215.856 403.982 215.514C404.623 215.172 405.174 214.684 405.589 214.087C406.005 213.491 406.273 212.805 406.371 212.085C406.47 211.365 406.396 210.632 406.157 209.946C405.917 209.26 405.518 208.641 404.992 208.139C404.467 207.638 403.83 207.268 403.134 207.061C402.438 206.854 401.703 206.815 400.989 206.947C400.707 206.614 400.356 206.347 399.96 206.164C399.564 205.98 399.133 205.886 398.697 205.887H379.363C378.89 205.887 378.424 205.998 378.002 206.211C377.58 206.424 377.213 206.734 376.933 207.114C376.652 207.495 376.464 207.936 376.385 208.402C376.305 208.869 376.336 209.347 376.475 209.8ZM400.201 214.3L401.585 209.8C401.745 209.28 401.761 208.727 401.63 208.199C401.689 208.196 401.745 208.182 401.805 208.182V214.738Cnan nan nan nan 401.805 214.738C401.241 214.735 400.688 214.584 400.201 214.3Z" fill="#6C63FF"/>
<path d="M395.43 236.719C394.637 235.921 394.028 234.958 393.647 233.899C393.265 232.84 393.12 231.711 393.222 230.589C393.324 229.468 393.671 228.383 394.237 227.41C394.803 226.438 395.576 225.601 396.5 224.96L384.249 164.062L397.778 168.409L407.585 227.313C408.559 228.938 408.903 230.865 408.552 232.727C408.202 234.59 407.181 236.259 405.682 237.418C404.184 238.578 402.313 239.147 400.424 239.018C398.534 238.889 396.757 238.071 395.43 236.719Z" fill="#FFB6B6"/>
<path d="M371.822 82.627L380.217 76.2857C380.217 76.2857 387.622 75.7609 388.933 89.1253C390.244 102.49 398.456 153.782 398.456 153.782L411.301 213.32L393.52 217.226L379.762 152.974L365.991 108.646L371.822 82.627Z" fill="#CFCFDE"/>
<path d="M299.375 138.063C302 138.063 304.127 135.934 304.127 133.308C304.127 130.681 302 128.552 299.375 128.552C296.751 128.552 294.624 130.681 294.624 133.308C294.624 135.934 296.751 138.063 299.375 138.063Z" fill="#6C63FF"/>
<path d="M147.853 456.705L157.755 456.704L162.467 418.479L147.851 418.48L147.853 456.705Z" fill="#FFB6B6"/>
<path d="M145.327 453.469L148.114 453.469L158.996 449.04L164.829 453.468H164.829C168.125 453.469 171.286 454.779 173.617 457.112C175.948 459.444 177.257 462.607 177.257 465.906V466.31L145.328 466.311L145.327 453.469Z" fill="#2F2E41"/>
<path d="M186.227 450.46L195.887 452.643L208.896 416.395L194.639 413.173L186.227 450.46Z" fill="#FFB6B6"/>
<path d="M184.475 446.747L187.194 447.361L198.784 445.44L203.498 451.045L203.499 451.045C206.714 451.772 209.509 453.747 211.269 456.536C213.029 459.325 213.61 462.699 212.884 465.917L212.795 466.311L181.649 459.274L184.475 446.747Z" fill="#2F2E41"/>
<path d="M129.724 260.08L138.679 360.485C138.679 360.485 135.324 420.763 146.15 441.975H161.852L169.626 354.98L170.602 296.589L204.265 345.851L182.824 440.553L202.149 442.281L236.941 339.509L198.717 243.029L129.724 260.08Z" fill="#2F2E41"/>
<path d="M139.103 100.187C151.857 100.187 162.196 89.8401 162.196 77.076C162.196 64.3119 151.857 53.9646 139.103 53.9646C126.349 53.9646 116.009 64.3119 116.009 77.076C116.009 89.8401 126.349 100.187 139.103 100.187Z" fill="#FFB6B6"/>
<path d="M179.699 122.211L160.754 114.076L151.531 104.286L128.491 108.005L122.378 118.494L102.589 136.909L125.774 241.822L125.072 264.736C125.072 264.736 139.911 271.421 204.265 256.029C205.036 255.844 203.421 255.036 203.421 255.036L179.699 122.211Z" fill="#2F2E41"/>
<path d="M115.089 90.19C114.928 89.9702 114.769 89.7486 114.611 89.5251C114.548 89.6593 114.497 89.798 114.425 89.929L115.089 90.19Z" fill="#2F2E41"/>
<path d="M162.075 60.1712C160.531 56.8058 157.779 54.1448 154.365 52.7169C150.981 51.351 147.199 51.3543 143.817 52.7262C140.764 50.7958 137.372 49.2654 133.8 49.0759C130.227 48.8863 126.45 50.2127 124.249 53.1324C123.757 53.9031 123.199 54.6291 122.58 55.3019C120.81 56.942 118.121 56.7055 115.769 56.3701C116.824 57.275 117.879 58.1799 118.935 59.0848C117.657 59.4187 116.38 59.7526 115.103 60.0865C116.593 60.9911 118.084 61.8957 119.574 62.8003C115.247 65.3992 113.281 71.0716 113.8 76.2234C114.292 81.1009 116.645 85.561 119.457 89.5253C120.58 87.1556 120.338 84.3201 120.319 81.6512C120.3 78.8312 120.798 75.6289 123.056 74.0529C124.579 72.9898 126.538 72.9423 128.375 72.9524C137.639 73.0033 146.894 73.5815 156.093 74.6842C157.341 74.7382 158.558 75.0915 159.642 75.7143C161.676 77.1032 162.072 79.9695 162.277 82.4841C163.351 78.3321 163.877 74.0569 163.841 69.768C163.932 66.4805 163.33 63.2107 162.075 60.1712Z" fill="#2F2E41"/>
<path d="M169.264 330.464C189.338 330.464 205.612 314.178 205.612 294.088C205.612 273.999 189.338 257.713 169.264 257.713C149.19 257.713 132.917 273.999 132.917 294.088C132.917 314.178 149.19 330.464 169.264 330.464Z" fill="white"/>
<path d="M169.264 256.904C167.396 256.905 165.53 257.045 163.683 257.325C162.738 257.462 161.817 257.64 160.904 257.858C154.199 259.405 148.055 262.786 143.157 267.624C138.26 272.462 134.802 278.566 133.17 285.256C131.537 291.946 131.794 298.959 133.911 305.511C136.029 312.064 139.924 317.898 145.162 322.365C145.784 322.89 146.414 323.399 147.068 323.884C151.784 327.403 157.267 329.751 163.066 330.734C168.865 331.718 174.815 331.309 180.425 329.541C186.036 327.774 191.147 324.699 195.338 320.568C199.529 316.438 202.679 311.37 204.531 305.783C206.383 300.196 206.882 294.248 205.988 288.43C205.094 282.612 202.832 277.089 199.389 272.317C195.945 267.545 191.419 263.659 186.182 260.979C180.944 258.3 175.146 256.903 169.264 256.904V256.904ZM169.264 329.656C161.707 329.664 154.347 327.247 148.264 322.761C147.601 322.276 146.963 321.775 146.341 321.241C141.238 316.933 137.451 311.272 135.416 304.909C133.38 298.545 133.178 291.736 134.832 285.262C136.487 278.789 139.931 272.913 144.769 268.309C149.608 263.705 155.645 260.559 162.189 259.232C163.093 259.046 163.998 258.901 164.919 258.788C166.36 258.609 167.812 258.52 169.264 258.521V329.656Cnan nan nan nan 169.264 329.656Z" fill="#2F2E41"/>
<path d="M151.436 286.813H187.092C188.398 286.813 189.457 285.754 189.457 284.447V284.33C189.457 283.023 188.398 281.963 187.092 281.963H151.436C150.13 281.963 149.071 283.023 149.071 284.33V284.447C149.071 285.754 150.13 286.813 151.436 286.813Z" fill="#6C63FF"/>
<path d="M151.436 296.514H187.092C188.398 296.514 189.457 295.454 189.457 294.147V294.03C189.457 292.723 188.398 291.664 187.092 291.664H151.436C150.13 291.664 149.071 292.723 149.071 294.03V294.147C149.071 295.454 150.13 296.514 151.436 296.514Z" fill="#6C63FF"/>
<path d="M151.436 306.214H187.092C188.398 306.214 189.457 305.154 189.457 303.847V303.731C189.457 302.423 188.398 301.364 187.092 301.364H151.436C150.13 301.364 149.071 302.423 149.071 303.731V303.847C149.071 305.154 150.13 306.214 151.436 306.214Z" fill="#6C63FF"/>
<path d="M575.912 455.471L565.529 455.47L560.589 415.389L575.914 415.39L575.912 455.471Z" fill="#9E616A"/>
<path d="M526.789 455.471L516.406 455.47L511.466 415.389L526.791 415.39L526.789 455.471Z" fill="#9E616A"/>
<path d="M527.155 466.311L495.225 466.31V465.906C495.225 462.607 496.535 459.444 498.865 457.112C501.196 454.779 504.357 453.469 507.653 453.468H507.654L513.486 449.04L524.368 453.469L527.155 453.469L527.155 466.311Z" fill="#2F2E41"/>
<path d="M577.61 466.311L545.68 466.31V465.906C545.68 462.607 546.989 459.444 549.32 457.112C551.651 454.779 554.812 453.469 558.108 453.468H558.108L563.941 449.04L574.823 453.469L577.61 453.469L577.61 466.311Z" fill="#2F2E41"/>
<path d="M516.604 218.255L500.823 314.419L505.118 328.749L499.483 338.898L507.758 428.029L504.399 435.43L513.785 441.223H532.884L533.897 360.532L538.615 348.685V342.156L548.219 292.953L549.987 361.859L552.781 373.725L550.434 382.173L553.5 388.092L561.645 442.981H583.061L581.405 430.211C583.27 429.266 584.769 427.727 585.665 425.837C586.561 423.946 586.804 421.811 586.356 419.767L585.128 414.17L587.923 397.62L593.012 305.292L591.577 230.794L566.524 211.622L516.604 218.255Z" fill="#2F2E41"/>
<path d="M552.781 94.7699C563.77 94.7699 572.678 85.8546 572.678 74.8571C572.678 63.8596 563.77 54.9443 552.781 54.9443C541.792 54.9443 532.884 63.8596 532.884 74.8571C532.884 85.8546 541.792 94.7699 552.781 94.7699Z" fill="#9E616A"/>
<path d="M509.308 256.416C510.174 255.521 510.833 254.446 511.239 253.268C511.645 252.09 511.788 250.838 511.658 249.598C511.528 248.359 511.128 247.163 510.486 246.096C509.845 245.028 508.977 244.114 507.944 243.418L515.681 214.135L500.775 219.153L495.712 246.191C494.659 248.005 494.308 250.143 494.724 252.199C495.141 254.255 496.296 256.087 497.972 257.347C499.648 258.607 501.727 259.209 503.817 259.037C505.906 258.866 507.86 257.933 509.308 256.416H509.308Z" fill="#9E616A"/>
<path d="M517.451 115.825L514.251 115.16L511.522 116.672C511.522 116.672 503.899 126.844 503.899 136.167C503.899 145.491 494.583 235.337 494.583 235.337L511.522 242.966L525.073 172.614L517.451 115.825Z" fill="#CFCFDE"/>
<path d="M570.206 60.2573C570.206 60.2573 575.41 50.3009 563.961 49.3958C563.961 49.3958 554.2 40.5349 544.251 47.7759C544.251 47.7759 538.825 47.7759 535.857 53.9214C535.857 53.9214 531.59 52.3015 530.652 56.6368C530.652 56.6368 527.529 65.6881 530.652 73.8342C533.775 81.9804 534.812 82.8855 534.812 82.8855C534.812 82.8855 529.68 65.8067 542.171 64.9016C554.662 63.9964 568.64 56.1843 569.681 66.1407C570.722 76.097 572.288 78.5502 572.288 78.5502C572.288 78.5502 582.176 64.3304 570.206 60.2573Z" fill="#2F2E41"/>
<path d="M642.889 338.898C641.387 338.9 639.937 338.347 638.819 337.344L578.603 283.701C577.39 282.617 576.655 281.096 576.561 279.471C576.467 277.847 577.02 276.251 578.1 275.034L616.674 231.666C617.757 230.451 619.277 229.716 620.9 229.622C622.524 229.527 624.119 230.081 625.335 231.162L685.551 284.806C686.765 285.889 687.501 287.41 687.595 289.035C687.69 290.66 687.135 292.256 686.054 293.472L647.479 336.84C646.945 337.444 646.296 337.936 645.571 338.287C644.845 338.639 644.057 338.843 643.253 338.887C643.131 338.895 643.01 338.898 642.889 338.898Z" fill="white"/>
<path d="M642.888 339.292C641.29 339.295 639.747 338.706 638.557 337.639L578.341 283.995C577.05 282.842 576.268 281.223 576.168 279.494C576.067 277.765 576.656 276.066 577.806 274.771L616.38 231.403C617.533 230.111 619.15 229.329 620.878 229.228C622.605 229.128 624.303 229.717 625.597 230.867L685.813 284.511C687.106 285.663 687.889 287.282 687.989 289.012C688.089 290.741 687.499 292.44 686.348 293.734L647.773 337.103C647.205 337.745 646.515 338.269 645.743 338.643C644.971 339.017 644.132 339.234 643.276 339.282C643.146 339.288 643.017 339.292 642.888 339.292ZM621.259 230.794C620.56 230.793 619.869 230.94 619.231 231.226C618.593 231.511 618.023 231.93 617.558 232.452L578.984 275.821C578.112 276.803 577.665 278.091 577.741 279.403C577.817 280.714 578.41 281.942 579.39 282.817L639.605 336.46C640.091 336.893 640.657 337.226 641.271 337.439C641.885 337.653 642.535 337.744 643.185 337.706C643.834 337.668 644.469 337.503 645.054 337.219C645.64 336.935 646.163 336.539 646.595 336.053L685.17 292.685C686.043 291.703 686.491 290.415 686.415 289.103C686.339 287.791 685.745 286.564 684.764 285.69L624.548 232.046C623.643 231.238 622.472 230.792 621.259 230.794H621.259Z" fill="#2F2E41"/>
<path d="M664.724 297.826C664.074 297.827 663.446 297.588 662.961 297.155L615.694 255.046C615.433 254.815 615.219 254.534 615.066 254.219C614.913 253.905 614.824 253.564 614.803 253.215C614.782 252.866 614.83 252.516 614.945 252.186C615.059 251.856 615.238 251.551 615.47 251.29C615.702 251.029 615.984 250.816 616.298 250.664C616.613 250.512 616.954 250.424 617.303 250.404C617.652 250.385 618.001 250.434 618.33 250.55C618.66 250.665 618.964 250.845 619.224 251.078L666.491 293.187C666.893 293.545 667.177 294.017 667.305 294.54C667.432 295.063 667.398 295.613 667.207 296.116C667.015 296.619 666.675 297.052 666.232 297.358C665.788 297.663 665.263 297.826 664.724 297.826Z" fill="#6C63FF"/>
<path d="M655.709 307.961C655.058 307.962 654.431 307.723 653.945 307.29L606.678 265.182C606.418 264.95 606.206 264.669 606.054 264.355C605.902 264.041 605.814 263.7 605.794 263.352C605.774 263.004 605.822 262.655 605.937 262.326C606.051 261.996 606.229 261.693 606.461 261.432C606.693 261.172 606.974 260.959 607.287 260.807C607.601 260.655 607.942 260.567 608.29 260.547C608.637 260.526 608.986 260.575 609.315 260.69C609.644 260.804 609.948 260.983 610.208 261.215L657.475 303.323C657.877 303.681 658.161 304.153 658.289 304.676C658.417 305.199 658.382 305.749 658.191 306.252C657.999 306.755 657.659 307.188 657.216 307.494C656.772 307.799 656.247 307.962 655.709 307.961H655.709Z" fill="#6C63FF"/>
<path d="M646.693 318.099C646.043 318.1 645.415 317.861 644.929 317.427L597.662 275.319C597.401 275.087 597.189 274.806 597.036 274.492C596.884 274.178 596.795 273.837 596.775 273.489C596.755 273.14 596.803 272.791 596.918 272.461C597.032 272.132 597.21 271.828 597.442 271.567C597.674 271.306 597.955 271.094 598.269 270.942C598.583 270.79 598.924 270.701 599.272 270.681C599.621 270.661 599.969 270.71 600.299 270.825C600.628 270.94 600.932 271.119 601.192 271.351L648.459 313.46C648.861 313.818 649.145 314.29 649.273 314.813C649.401 315.336 649.367 315.886 649.175 316.389C648.983 316.892 648.643 317.325 648.2 317.631C647.757 317.936 647.231 318.099 646.693 318.099H646.693Z" fill="#6C63FF"/>
<path d="M592.639 258.144C592.033 257.056 591.672 255.848 591.582 254.605C591.493 253.362 591.677 252.115 592.121 250.951C592.565 249.787 593.259 248.734 594.153 247.868C595.048 247.001 596.122 246.341 597.299 245.935L597.35 215.646L610.465 224.333L608.406 251.764C608.957 253.788 608.747 255.944 607.816 257.824C606.885 259.704 605.297 261.176 603.354 261.963C601.411 262.749 599.246 262.795 597.272 262.091C595.297 261.387 593.649 259.983 592.639 258.144H592.639Z" fill="#9E616A"/>
<path d="M593.851 124.125L599.711 118.473L604.015 121.582C604.015 121.582 608.25 126.668 611.637 141.925C615.025 157.181 611.637 241.095 611.637 241.095L593.005 238.552L595.545 194.476L587.923 157.181L593.851 124.125Z" fill="#CFCFDE"/>
<path d="M602.503 119.851L582.763 110.415L569.361 97.9743L544.922 97.7913L537.038 108.048L516.226 115.123L519.694 186.945L517.329 192.468C517.329 192.468 518.977 193.958 519.73 194.791C520.483 195.624 518.69 202.599 518.69 202.599L517.679 210.188L520.483 212.193L516.837 216.502L515.932 223.295C515.932 223.295 579.565 207.467 591.588 233.688C592.224 235.073 590.659 221.533 590.659 221.533L589.095 211.622L590.647 202.725L593.012 200.358L589.045 196.388L591.588 177.552L602.503 119.851Z" fill="#2F2E41"/>
<path d="M154.841 279.075C155.331 277.831 155.543 276.493 155.46 275.158C155.378 273.823 155.004 272.522 154.365 271.346C153.726 270.171 152.837 269.151 151.761 268.357C150.685 267.562 149.448 267.014 148.138 266.75L143.753 234.525L131.038 245.648L137.152 274.544C136.854 276.777 137.386 279.041 138.645 280.908C139.905 282.775 141.805 284.114 143.985 284.673C146.166 285.232 148.475 284.97 150.476 283.939C152.477 282.907 154.03 281.177 154.841 279.075V279.075Z" fill="#FFB6B6"/>
<path d="M105.029 136.32L101.583 136.981L99.4995 139.606C99.4995 139.606 96.1296 152.834 99.9684 162.078C103.807 171.323 131.563 264.248 131.563 264.248L151.499 264.827L135.969 189.484L105.029 136.32Z" fill="#2F2E41"/>
<path d="M183.622 274.348C182.704 273.376 182.009 272.214 181.588 270.944C181.167 269.674 181.029 268.328 181.185 266.999C181.34 265.67 181.785 264.391 182.487 263.253C183.189 262.115 184.133 261.144 185.25 260.41L177.313 228.873L193.255 234.449L198.348 263.543C199.456 265.504 199.806 267.803 199.333 270.005C198.86 272.207 197.596 274.159 195.781 275.491C193.966 276.823 191.725 277.443 189.484 277.232C187.243 277.021 185.158 275.995 183.622 274.348Z" fill="#FFB6B6"/>
<path d="M176.657 123.3L180.101 122.627L183.011 124.285C183.011 124.285 191.067 135.302 190.949 145.312C190.831 155.323 199.698 251.904 199.698 251.904L181.415 259.88L167.755 184.176L176.657 123.3Z" fill="#2F2E41"/>
</g>
<defs>
<clipPath id="clip0_172_4800">
<rect width="688" height="465.638" fill="white" transform="translate(0 0.672852)"/>
</clipPath>
</defs>
</svg>
