<svg width="688" height="509" viewBox="0 0 688 509" fill="none" xmlns="http://www.w3.org/2000/svg">
<g clip-path="url(#clip0_172_4693)">
<path d="M20.9339 448.396C3.4094 433.308 -5.62634 410.705 3.78841 391.586C17.494 410.825 40.057 425.977 66.2165 433.509C76.4052 436.443 88.1221 438.863 93.6639 446.263C97.1123 450.867 97.3635 456.633 95.8099 461.847C94.2561 467.06 91.057 471.856 87.8897 476.586L87.8717 477.923C63.073 472.153 38.4584 463.484 20.9339 448.396Z" fill="white"/>
<path d="M4.31537 391.687C7.27006 408.338 16.9388 424.346 31.7215 436.414C34.9303 439.144 38.5716 441.414 42.5221 443.149C46.5877 444.796 51.0198 445.545 55.4604 445.336C59.6433 445.214 63.9043 444.704 68.0517 445.393C70.0858 445.72 72.0268 446.418 73.7587 447.447C75.4907 448.476 76.978 449.814 78.1316 451.381C80.8812 455.079 81.7943 459.342 82.5048 463.535C83.2937 468.191 84.0203 473.038 87.3722 477.043C87.7783 477.528 86.8069 478 86.4014 477.516C80.5697 470.547 82.5208 461.642 78.586 454.127C76.7499 450.62 73.5727 447.532 68.823 446.473C64.6695 445.547 60.2751 446.07 56.0411 446.222C51.7017 446.474 47.3537 445.873 43.2899 444.459C39.2429 442.892 35.4992 440.737 32.2033 438.078C24.9869 432.438 18.8206 425.763 13.9457 418.314C8.53547 410.153 4.88023 401.122 3.17657 391.706C3.07451 391.131 4.21397 391.116 4.31537 391.687Z" fill="white"/>
<path d="M26.6561 432.693C23.6466 434.399 20.1304 435.205 16.5966 434.999C13.0629 434.792 9.68735 433.584 6.93965 431.541C6.41926 431.131 7.19646 430.469 7.71754 430.88C10.2722 432.785 13.4157 433.911 16.706 434.098C19.9963 434.284 23.2679 433.523 26.0607 431.921C26.6504 431.576 27.2424 432.349 26.6561 432.693Z" fill="white"/>
<path d="M53.3497 445.62C53.935 442.711 53.8403 439.722 53.0717 436.849C52.3031 433.977 50.878 431.286 48.8902 428.953C48.4863 428.467 49.4576 427.994 49.8611 428.48C51.924 430.911 53.4002 433.714 54.1924 436.705C54.9846 439.695 55.0748 442.806 54.4571 445.831C54.3355 446.406 53.2287 446.192 53.3497 445.62Z" fill="white"/>
<path d="M9.97879 409.91C11.2212 409.505 12.3299 408.816 13.1996 407.909C14.0694 407.002 14.6713 405.907 14.9483 404.727C15.0607 404.151 16.1675 404.366 16.0558 404.938C15.7434 406.24 15.0774 407.448 14.1193 408.452C13.1612 409.456 11.942 410.222 10.5742 410.681C10.4444 410.741 10.2964 410.759 10.1542 410.732C10.012 410.704 9.88405 410.634 9.79108 410.532C9.75301 410.481 9.72751 410.424 9.71638 410.363C9.70525 410.303 9.70877 410.24 9.72665 410.181C9.74454 410.122 9.77633 410.067 9.81989 410.02C9.86345 409.973 9.91769 409.936 9.97879 409.91Z" fill="white"/>
<path d="M86.8894 369.847C86.8322 370.208 86.7748 370.57 86.7246 370.936C85.9865 375.791 85.7462 380.698 86.0067 385.594C86.0193 385.972 86.0392 386.356 86.0655 386.733C86.8904 398.644 90.4398 410.264 96.4842 420.841C98.9432 425.159 101.783 429.287 104.975 433.184C109.422 438.621 114.789 444.236 116.661 450.343C116.865 450.976 117.019 451.621 117.124 452.274L89.9266 477.837C89.8281 477.871 89.7366 477.909 89.6378 477.943L88.6107 479.003C88.4267 478.809 88.2412 478.605 88.0573 478.411C87.95 478.299 87.8488 478.181 87.7416 478.069C87.672 477.993 87.6026 477.916 87.5343 477.85C87.511 477.825 87.4881 477.799 87.4721 477.778C87.4038 477.713 87.3491 477.646 87.2881 477.585C86.2472 476.446 85.2145 475.299 84.1901 474.144C84.1827 474.139 84.1827 474.139 84.1815 474.128C76.4041 465.314 69.4847 455.907 64.5822 445.965C64.4348 445.665 64.2798 445.362 64.1448 445.051C61.979 440.594 60.2647 435.964 59.0234 431.221C58.3616 428.645 57.8632 426.036 57.5309 423.408C56.6918 416.624 57.2012 409.757 59.0345 403.138C62.6964 389.877 71.6553 377.695 85.8018 370.396C86.1638 370.21 86.52 370.028 86.8894 369.847Z" fill="white"/>
<path d="M87.2366 370.179C76.9789 384.886 72.5684 402.293 75.2272 419C75.7084 422.678 76.9002 426.248 78.7469 429.545C80.8025 432.857 83.7996 435.599 87.4206 437.48C90.8528 439.384 94.641 441.015 97.431 443.549C98.8032 444.782 99.8367 446.296 100.447 447.965C101.057 449.634 101.227 451.411 100.942 453.152C100.335 457.42 97.8334 461.26 95.2231 464.949C92.3249 469.044 89.233 473.26 88.8743 478.062C88.8308 478.644 87.6973 478.556 87.7407 477.975C88.3647 469.622 96.6709 463.444 99.2236 455.562C100.415 451.884 100.218 447.898 97.2279 444.781C94.6133 442.054 90.7087 440.369 87.2125 438.466C83.6385 436.661 80.6018 434.083 78.3677 430.958C76.3186 427.757 74.9553 424.228 74.3507 420.56C72.8655 412.433 73.0006 404.128 74.7495 396.045C76.7388 386.655 80.663 377.698 86.3129 369.649C86.6672 369.141 87.5887 369.674 87.2366 370.179V370.179Z" fill="white"/>
<path d="M74.0022 413.606C66.5533 413.544 60.1974 409.104 59.1326 403.255C59.0277 402.678 60.1497 402.522 60.2547 403.099C61.2523 408.578 67.1482 412.647 74.1113 412.705C74.8441 412.711 74.7307 413.612 74.0022 413.606Z" fill="white"/>
<path d="M85.5201 436.697C88.0966 434.819 90.229 432.482 91.7879 429.828C93.3467 427.174 94.2996 424.257 94.5886 421.256C94.6347 420.675 95.7683 420.762 95.7223 421.343C95.4139 424.466 94.4147 427.499 92.7855 430.259C91.1563 433.018 88.9309 435.446 86.2446 437.395C85.7115 437.796 84.9899 437.096 85.5201 436.697Z" fill="white"/>
<path d="M77.9502 387.437C79.3268 387.693 80.748 387.667 82.1126 387.363C83.4773 387.059 84.7517 386.483 85.8452 385.677C86.3716 385.27 87.0927 385.971 86.5697 386.375C85.3574 387.261 83.9488 387.896 82.4416 388.235C80.9344 388.574 79.3646 388.609 77.841 388.338C77.5386 388.284 77.3002 388.11 77.3288 387.844C77.356 387.717 77.4355 387.604 77.5511 387.528C77.6666 387.452 77.8094 387.42 77.9502 387.437V387.437Z" fill="white"/>
<path d="M128.123 176.175C115.245 176.175 104.806 166.628 104.806 154.851C104.806 143.073 115.245 133.526 128.123 133.526C141 133.526 151.439 143.073 151.439 154.851C151.439 166.628 141 176.175 128.123 176.175Z" fill="#9E616A"/>
<path d="M25.9503 253.37C29.2273 246.412 33.7274 239.992 39.272 234.364C34.5769 241.207 31.8936 249.044 31.482 257.114C33.1819 258.085 34.9605 258.936 36.8022 259.659C42.3372 261.782 48.2385 262.995 54.2346 263.241C57.4663 253.394 63.0443 244.324 70.5674 236.684C65.1457 244.592 62.4193 253.796 62.7351 263.125C69.423 262.596 76.0123 261.304 82.3497 259.28C91.8652 256.286 101.101 251.815 107.682 244.861C114.804 237.334 118.314 227.402 119.447 217.5C120.581 207.606 119.515 197.619 118.441 187.718C117.933 182.999 122.23 177.568 121.723 172.85H121.384C119.126 170.018 116.825 167.118 115.717 163.76C114.618 160.411 114.905 156.458 117.434 153.82C118.851 152.442 120.639 151.428 122.619 150.88C122.805 150.664 123.008 150.455 123.22 150.246C127.05 146.526 131.557 143.442 136.541 141.134C132.947 143.617 130.545 146.425 129.428 149.326C132.541 148.699 135.653 148.075 138.766 147.454C139.806 146.444 140.901 145.484 142.048 144.576C143.375 143.592 144.78 142.7 146.251 141.907C144.647 143.198 143.403 144.821 142.623 146.641C146.624 145.721 150.624 144.336 152.705 141.188C156.156 135.982 152.054 128.958 146.328 125.848C142.162 123.696 137.363 122.796 132.607 123.275C127.852 123.753 123.382 125.587 119.828 128.517C111.547 122.939 99.7567 123.032 90.5457 127.202C84.4648 130.077 79.2265 134.245 75.2702 139.354C77.5652 139.085 79.8753 138.938 82.189 138.913C78.9321 139.349 75.8308 140.472 73.1303 142.193C71.9356 143.89 70.8401 145.643 69.8485 147.446C69.1972 148.629 68.5826 149.828 68.0046 151.043C64.4606 158.423 62.1515 166.282 59.7579 174.049C56.9666 183.099 53.9724 192.212 48.7453 200.311C40.7307 212.627 28.0878 221.852 13.1785 226.264C11.9351 236.499 17.399 246.509 25.9503 253.37Z" fill="#2F2E41"/>
<path d="M80.0591 484.42L88.5224 488.024L107.748 459.881L95.256 454.563L80.0591 484.42Z" fill="#9E616A"/>
<path d="M68.7648 495.93L74.8345 498.514L78.5856 493.734L78.6927 500.157L94.7908 507.011C95.5624 507.339 96.4287 507.434 97.2632 507.28C98.0976 507.127 98.8565 506.733 99.4291 506.157C100.002 505.581 100.358 504.853 100.446 504.078C100.534 503.304 100.349 502.524 99.918 501.853L91.1957 488.26L93.8926 482.961L79.9952 477.942L68.7648 495.93Z" fill="#2F2E41"/>
<path d="M165.025 492.558H174.362L178.805 459.625H165.025V492.558Z" fill="#9E616A"/>
<path d="M160.098 507.351H166.793L167.988 501.57L171.049 507.351H188.806C189.657 507.352 190.486 507.103 191.172 506.641C191.857 506.18 192.364 505.53 192.617 504.787C192.87 504.044 192.857 503.246 192.58 502.51C192.302 501.774 191.775 501.139 191.074 500.697L176.894 491.74V485.896L161.979 486.71L160.098 507.351Z" fill="#2F2E41"/>
<path d="M121.904 243.013L129.639 264.598L132.196 282.095L173.284 270.493L169.483 231.45L160.937 223.717L121.904 243.013Z" fill="#9E616A"/>
<path d="M515.264 41.1664C512.972 38.0161 514.328 33.5064 518.293 31.0939C522.258 28.6813 527.33 29.2794 529.622 32.4298C531.914 35.5801 530.557 40.0897 526.592 42.5022C522.627 44.9148 517.555 44.3167 515.264 41.1664Z" fill="#FD6584"/>
<path d="M431.923 303.65C429.632 300.499 430.988 295.99 434.953 293.577C438.918 291.165 443.99 291.763 446.282 294.913C448.573 298.063 447.217 302.573 443.252 304.986C439.287 307.398 434.215 306.8 431.923 303.65Z" fill="white"/>
<path d="M665.37 78.5421C663.078 75.3918 664.435 70.8822 668.4 68.4696C672.365 66.0571 677.437 66.6552 679.728 69.8055C682.02 72.9558 680.664 77.4654 676.699 79.878C672.734 82.2905 667.662 81.6924 665.37 78.5421Z" fill="white"/>
<path d="M371.137 265.291H653.002C662.281 265.281 671.176 261.906 677.738 255.905C684.299 249.904 687.989 241.768 688 233.282V122.474C687.99 113.987 684.299 105.851 677.738 99.8506C671.176 93.85 662.281 90.4746 653.002 90.465C563.06 67.6759 468.729 69.8108 371.137 90.465C361.858 90.4746 352.962 93.85 346.401 99.8506C339.839 105.851 336.149 113.987 336.138 122.474V233.282C336.149 241.768 339.84 249.904 346.401 255.905C352.962 261.906 361.858 265.281 371.137 265.291Z" fill="white"/>
<path d="M657.973 237.056C658.084 237.056 658.194 237.036 658.297 236.997C658.4 236.958 658.493 236.901 658.571 236.829C658.65 236.757 658.712 236.672 658.755 236.578C658.797 236.484 658.819 236.384 658.819 236.282V119.474C658.819 119.268 658.73 119.072 658.571 118.927C658.413 118.782 658.198 118.7 657.973 118.7C657.749 118.7 657.534 118.782 657.375 118.927C657.217 119.072 657.127 119.268 657.127 119.474V236.282C657.127 236.384 657.149 236.484 657.192 236.578C657.234 236.672 657.297 236.757 657.375 236.829C657.454 236.901 657.547 236.958 657.65 236.997C657.752 237.036 657.862 237.056 657.973 237.056Z" fill="white"/>
<path d="M364.473 237.056C364.362 237.056 364.252 237.036 364.15 236.997C364.047 236.958 363.954 236.901 363.875 236.829C363.797 236.757 363.734 236.672 363.692 236.578C363.649 236.484 363.627 236.384 363.627 236.282V119.474C363.627 119.268 363.717 119.072 363.875 118.927C364.034 118.782 364.249 118.7 364.473 118.7C364.698 118.7 364.913 118.782 365.071 118.927C365.23 119.072 365.319 119.268 365.319 119.474V236.282C365.319 236.384 365.297 236.484 365.255 236.578C365.212 236.672 365.15 236.757 365.071 236.829C364.993 236.901 364.9 236.958 364.797 236.997C364.694 237.036 364.584 237.056 364.473 237.056Z" fill="white"/>
<path d="M420.297 144.228H420.3C420.525 144.227 420.74 144.145 420.898 143.999C421.056 143.854 421.144 143.657 421.143 143.452L420.72 25.0961C420.72 24.8914 420.63 24.6954 420.472 24.5509C420.313 24.4064 420.098 24.3252 419.875 24.3252H419.872C419.647 24.3259 419.433 24.4081 419.274 24.5536C419.116 24.6992 419.028 24.8962 419.029 25.1014L419.452 143.457C419.452 143.662 419.542 143.858 419.7 144.002C419.859 144.147 420.074 144.228 420.297 144.228Z" fill="#2F2E41"/>
<path d="M528.563 313.639H528.566C528.79 313.638 529.005 313.556 529.163 313.41C529.321 313.265 529.409 313.068 529.408 312.863L528.986 197.601C528.985 197.396 528.895 197.2 528.737 197.056C528.578 196.911 528.364 196.83 528.14 196.83H528.137C527.912 196.831 527.698 196.913 527.54 197.059C527.382 197.204 527.293 197.401 527.294 197.606L527.717 312.867C527.717 313.072 527.807 313.268 527.965 313.413C528.124 313.557 528.339 313.639 528.563 313.639Z" fill="#2F2E41"/>
<path d="M608.916 165.888H608.919C609.143 165.887 609.358 165.805 609.516 165.659C609.674 165.514 609.762 165.317 609.761 165.111L609.339 48.303C609.338 48.0983 609.248 47.9023 609.09 47.7578C608.931 47.6133 608.717 47.5322 608.493 47.5321H608.49C608.266 47.5328 608.051 47.615 607.893 47.7606C607.735 47.9061 607.646 48.1031 607.647 48.3083L608.07 165.117C608.071 165.321 608.16 165.517 608.319 165.662C608.477 165.806 608.692 165.888 608.916 165.888Z" fill="#2F2E41"/>
<path d="M643.84 196.984C642.212 188.942 632.213 185.233 624.111 185.863C612.534 186.763 602.871 193.734 592.096 197.021C586.888 198.609 581.286 199.481 575.829 198.567C571.528 197.757 567.539 195.915 564.272 193.23C558.007 188.333 553.771 181.654 547.501 176.762C544.148 174.001 539.907 172.307 535.413 171.935C529.881 171.599 524.463 173.313 519.614 175.612C509.98 180.178 502.094 187.442 491.834 190.966C487.122 192.627 482.012 193.11 477.029 192.365C472.055 191.459 467.326 189.664 463.113 187.083C454.278 181.978 446.997 174.895 437.709 170.419C433.141 168.217 428.066 166.533 422.848 166.5C417.806 166.506 412.958 168.281 409.304 171.46C402.269 177.308 396.722 186.541 385.977 186.703C383.736 186.741 381.531 186.188 379.625 185.109C378.239 184.325 379.512 182.316 380.906 183.105C385.286 185.582 390.561 184.019 394.552 181.617C398.804 179.058 401.822 175.148 405.291 171.816C408.738 168.506 412.76 165.719 417.718 164.686C422.672 163.791 427.801 164.183 432.523 165.818C442.673 169.052 450.356 175.709 458.78 181.501C467.082 187.209 476.775 192.148 487.486 189.771C498.151 187.404 506.242 180.017 515.466 175.059C524.383 170.267 535.313 167.206 544.915 172.249C552.17 176.06 556.758 182.789 562.33 188.272C565.079 190.977 568.146 193.491 571.86 195.028C577.021 197.163 582.854 196.914 588.229 195.648C599.443 193.008 608.901 186.103 620.32 184.037C628.796 182.504 638.828 184.436 644.001 191.288C645.145 192.816 645.924 194.546 646.287 196.368C646.583 197.827 644.138 198.453 643.84 196.984L643.84 196.984Z" fill="#2F2E41"/>
<path d="M608.493 202.052C602.42 202.052 597.497 197.549 597.497 191.995C597.497 186.441 602.42 181.939 608.493 181.939C614.566 181.939 619.489 186.441 619.489 191.995C619.489 197.549 614.566 202.052 608.493 202.052Z" fill="#6C63FF"/>
<path d="M529.409 180.779C523.336 180.779 518.413 176.276 518.413 170.722C518.413 165.168 523.336 160.666 529.409 160.666C535.481 160.666 540.404 165.168 540.404 170.722C540.404 176.276 535.481 180.779 529.409 180.779Z" fill="#6C63FF"/>
<path d="M421.143 173.817C415.071 173.817 410.148 169.314 410.148 163.76C410.148 158.206 415.071 153.704 421.143 153.704C427.216 153.704 432.139 158.206 432.139 163.76C432.139 169.314 427.216 173.817 421.143 173.817Z" fill="#6C63FF"/>
<path d="M515.464 343.098H539.582C540.909 343.097 542.191 342.659 543.192 341.863C544.193 341.067 544.847 339.968 545.033 338.767C546.523 328.744 546.523 318.584 545.033 308.561C544.85 307.377 544.212 306.291 543.233 305.497C542.254 304.703 540.999 304.254 539.691 304.23C531.837 300.372 523.652 300.372 515.36 304.23C514.569 304.242 513.79 304.412 513.078 304.727C512.366 305.043 511.738 305.497 511.237 306.057C510.712 306.642 510.337 307.327 510.138 308.062C509.939 308.797 509.922 309.563 510.087 310.304C512.024 319.122 512.024 328.205 510.087 337.023C509.922 337.765 509.939 338.531 510.138 339.265C510.337 340 510.712 340.685 511.237 341.27C511.749 341.843 512.394 342.304 513.125 342.62C513.856 342.936 514.655 343.1 515.464 343.098Z" fill="#6C63FF"/>
<path d="M404.662 41.6212H428.78C430.106 41.6203 431.388 41.1817 432.389 40.386C433.391 39.5903 434.045 38.4908 434.231 37.2896C435.72 27.2671 435.72 17.1064 434.231 7.08389C434.047 5.89709 433.406 4.80917 432.424 4.01542C431.442 3.22166 430.183 2.77407 428.872 2.75299C421.284 -0.357895 413.112 -0.357514 404.579 2.75261C403.784 2.76226 403.001 2.93088 402.285 3.24663C401.569 3.56239 400.938 4.01762 400.434 4.58039C399.91 5.16583 399.535 5.85078 399.336 6.58548C399.137 7.32019 399.119 8.08619 399.285 8.82782C401.222 17.6456 401.222 26.7278 399.285 35.5457C399.119 36.2873 399.137 37.0533 399.336 37.788C399.535 38.5227 399.91 39.2076 400.434 39.7931C400.946 40.3658 401.591 40.827 402.323 41.1433C403.054 41.4595 403.853 41.6228 404.662 41.6212Z" fill="#6C63FF"/>
<path d="M596.897 61.7101H621.015C621.824 61.7116 622.623 61.5484 623.354 61.2321C624.085 60.9159 624.73 60.4547 625.242 59.882C625.767 59.2965 626.142 58.6116 626.341 57.8769C626.54 57.1422 626.557 56.3762 626.392 55.6345C624.455 46.8167 624.455 37.7345 626.392 28.9167C626.557 28.175 626.54 27.4089 626.341 26.6742C626.142 25.9394 625.767 25.2544 625.242 24.6689C624.741 24.1082 624.112 23.6543 623.4 23.3387C622.687 23.0232 621.907 22.8536 621.116 22.8419C613.783 19.5576 605.608 19.5576 596.812 22.8419C595.501 22.861 594.239 23.3078 593.256 24.1018C592.272 24.8957 591.63 25.9847 591.446 27.1728C589.957 37.1951 589.957 47.3557 591.446 57.3781C591.632 58.5794 592.286 59.6789 593.287 60.4748C594.289 61.2706 595.57 61.7092 596.897 61.7101Z" fill="#CFCFDE"/>
<path d="M407.187 14.2688H427.487Cnan nan nan nan 427.487 14.2688L407.187 11.9481V14.2688Cnan nan nan nan 407.187 14.2688Z" fill="white"/>
<path d="M407.187 23.5517H427.487Cnan nan nan nan 427.487 23.5517L407.187 21.231V23.5517Cnan nan nan nan 407.187 23.5517Z" fill="white"/>
<path d="M407.187 32.8344H427.487Cnan nan nan nan 427.487 32.8344L407.187 30.5137V32.8344Cnan nan nan nan 407.187 32.8344Z" fill="white"/>
<path d="M596.528 32.8344H616.828Cnan nan nan nan 616.828 32.8344L596.528 30.5137V32.8344Cnan nan nan nan 596.528 32.8344Z" fill="white"/>
<path d="M596.528 42.1172H616.828Cnan nan nan nan 616.828 42.1172L596.528 39.7965V42.1172Cnan nan nan nan 596.528 42.1172Z" fill="white"/>
<path d="M596.528 51.3999H616.828Cnan nan nan nan 616.828 51.3999L596.528 49.0792V51.3999Cnan nan nan nan 596.528 51.3999Z" fill="white"/>
<path d="M517.021 313.639H537.321Cnan nan nan nan 537.321 313.639L517.021 311.318V313.639Cnan nan nan nan 517.021 313.639Z" fill="white"/>
<path d="M517.021 322.921H537.321Cnan nan nan nan 537.321 322.921L517.021 320.601V322.921Cnan nan nan nan 517.021 322.921Z" fill="white"/>
<path d="M517.021 332.204H537.321Cnan nan nan nan 537.321 332.204L517.021 329.883V332.204Cnan nan nan nan 517.021 332.204Z" fill="white"/>
<path d="M117.898 278.604L174.383 266.919L195.309 311.318L201.23 401.825L185.803 475.314H154.89L169.089 401.825L165.706 346.128L149.855 413.015L107.854 468.508L88.4754 453.2L121.723 401.051C121.723 401.051 107.803 307.432 122.569 291.205L117.898 278.604Z" fill="#2F2E41"/>
<path d="M151.603 190.436L147.078 188.882L141.372 180.443L121.045 181.962L116.104 191.011L104.202 199.323L109.407 224.394L117.494 254.848L171.626 248.659L171.569 225.734C171.569 225.734 181.351 207.622 165.55 200.836L151.603 190.436Z" fill="white"/>
<path d="M235.043 269.956C233.993 270.342 232.862 270.512 231.731 270.455C230.601 270.398 229.497 270.115 228.499 269.626C227.501 269.137 226.633 268.454 225.955 267.624C225.276 266.795 224.806 265.839 224.575 264.826L164.217 231.424L175.25 219.782L231.11 256.276C232.998 256.034 234.917 256.435 236.504 257.401C238.091 258.367 239.236 259.832 239.721 261.518C240.205 263.204 239.997 264.995 239.135 266.55C238.273 268.105 236.817 269.317 235.043 269.956V269.956Z" fill="#9E616A"/>
<path d="M144.105 215.584C144.105 215.584 141.221 218.239 148.459 222.603C154.253 226.097 180.098 243.364 189.26 246.095C189.145 247.326 189.481 248.557 190.216 249.593C190.95 250.63 192.041 251.414 193.316 251.821L201.611 235.149C199.815 231.338 196.943 232.22 195.432 233.085L185.413 226.194L160.812 203.726L146.153 213.632L144.105 215.584Z" fill="white"/>
<path d="M236.607 272.659H260.725C261.534 272.661 262.333 272.497 263.064 272.181C263.795 271.865 264.44 271.404 264.952 270.831C265.476 270.245 265.852 269.56 266.051 268.826C266.249 268.091 266.267 267.325 266.102 266.583C264.164 257.766 264.164 248.683 266.102 239.866C266.267 239.124 266.249 238.358 266.051 237.623C265.852 236.888 265.476 236.203 264.952 235.618C264.451 235.057 263.822 234.603 263.109 234.288C262.396 233.972 261.617 233.802 260.825 233.791C253.493 230.506 245.317 230.506 236.522 233.791C235.21 233.81 233.949 234.257 232.965 235.051C231.981 235.845 231.34 236.934 231.156 238.122C229.667 248.144 229.667 258.305 231.156 268.327C231.342 269.528 231.996 270.628 232.997 271.424C233.998 272.219 235.28 272.658 236.607 272.659Z" fill="#6C63FF"/>
<path d="M236.238 243.783H256.537Cnan nan nan nan 256.537 243.783L236.238 241.463V243.783Cnan nan nan nan 236.238 243.783Z" fill="white"/>
<path d="M236.238 253.066H256.537Cnan nan nan nan 256.537 253.066L236.238 250.745V253.066Cnan nan nan nan 236.238 253.066Z" fill="white"/>
<path d="M236.238 262.349H256.537Cnan nan nan nan 256.537 262.349L236.238 260.028V262.349Cnan nan nan nan 236.238 262.349Z" fill="white"/>
<path d="M119.883 339.186H144.002C144.81 339.187 145.609 339.024 146.341 338.708C147.072 338.391 147.717 337.93 148.229 337.357C148.753 336.772 149.129 336.087 149.327 335.352C149.526 334.618 149.544 333.852 149.378 333.11C147.441 324.292 147.441 315.21 149.378 306.392C149.544 305.65 149.526 304.884 149.327 304.15C149.129 303.415 148.753 302.73 148.229 302.144C147.727 301.584 147.099 301.13 146.386 300.814C145.673 300.499 144.894 300.329 144.102 300.317C136.77 297.033 128.594 297.033 119.799 300.317C118.487 300.336 117.226 300.783 116.242 301.577C115.258 302.371 114.617 303.46 114.433 304.648C112.943 314.671 112.943 324.831 114.433 334.854C114.619 336.055 115.272 337.154 116.274 337.95C117.275 338.746 118.557 339.185 119.883 339.186Z" fill="#CFCFDE"/>
<path d="M119.514 310.31H139.814Cnan nan nan nan 139.814 310.31L119.514 307.989V310.31Cnan nan nan nan 119.514 310.31Z" fill="white"/>
<path d="M119.514 319.593H139.814Cnan nan nan nan 139.814 319.593L119.514 317.272V319.593Cnan nan nan nan 119.514 319.593Z" fill="white"/>
<path d="M119.514 328.875H139.814Cnan nan nan nan 139.814 328.875L119.514 326.555V328.875Cnan nan nan nan 119.514 328.875Z" fill="white"/>
<path d="M130.591 305.97C129.535 305.595 128.583 305.012 127.8 304.264C127.017 303.515 126.424 302.619 126.061 301.638C125.698 300.657 125.574 299.615 125.699 298.586C125.824 297.557 126.194 296.565 126.784 295.681L107.689 233.569L124.442 231.968L137.944 293.525C139.502 294.529 140.604 296.021 141.041 297.718C141.477 299.416 141.217 301.2 140.311 302.734C139.405 304.268 137.915 305.445 136.123 306.041C134.332 306.638 132.363 306.612 130.591 305.97Z" fill="#9E616A"/>
<path d="M104.864 199.473C104.864 199.473 100.775 199.607 102.797 207.317C104.415 213.49 110.357 252.212 115.004 259.933C114 260.759 113.326 261.868 113.087 263.084C112.849 264.299 113.059 265.553 113.685 266.648L132.2 259.664C133.737 255.759 132.547 252.214 130.798 251.9L128.635 240.607L125.447 202.723L107.818 199.328L104.864 199.473Z" fill="white"/>
<path d="M119.976 129.097C117.173 132.879 115.363 137.202 114.685 141.729C114.008 146.255 114.481 150.864 116.069 155.196" fill="#FD6584"/>
<path d="M21.2194 507.219C21.219 507.34 21.2448 507.459 21.2952 507.571C21.3457 507.683 21.4198 507.785 21.5133 507.87C21.6069 507.956 21.718 508.024 21.8403 508.07C21.9626 508.116 22.0937 508.139 22.226 508.139H259.301C259.433 508.139 259.564 508.115 259.686 508.069C259.808 508.023 259.919 507.955 260.013 507.87C260.106 507.784 260.18 507.683 260.231 507.571C260.282 507.459 260.308 507.339 260.308 507.219C260.308 507.098 260.282 506.978 260.231 506.866C260.18 506.755 260.106 506.653 260.013 506.568C259.919 506.482 259.808 506.414 259.686 506.368C259.564 506.322 259.433 506.298 259.301 506.298H22.226C22.0937 506.298 21.9626 506.321 21.8403 506.367C21.718 506.414 21.6069 506.481 21.5133 506.567C21.4198 506.652 21.3457 506.754 21.2952 506.866C21.2448 506.978 21.219 507.098 21.2194 507.219Z" fill="#CFCFDE"/>
</g>
<defs>
<clipPath id="clip0_172_4693">
<rect width="688" height="507.719" fill="white" transform="matrix(-1 0 0 1 688 0.419922)"/>
</clipPath>
</defs>
</svg>
